<svg width="359" height="286" viewBox="0 0 359 286" fill="none" xmlns="http://www.w3.org/2000/svg">
<path d="M339.776 32.8764C332.845 29.3591 329.887 30.007 327.022 29.9145C324.157 29.8219 325.358 30.655 324.711 31.6731C324.065 32.6913 323.048 31.3954 321.662 30.6549C320.275 29.9145 310.016 30.5624 307.706 30.1921C305.395 29.8219 306.042 28.4335 304.841 26.4897C303.639 24.546 299.942 25.1014 295.414 25.7493C290.885 26.3972 290.146 21.6766 287.096 19.918C284.046 18.1593 278.778 19.7329 274.342 20.3808C269.905 21.0287 270.83 22.6022 270.552 23.9906C270.275 25.379 264.452 25.0088 261.125 24.546C257.798 24.0832 260.293 23.3427 258.907 22.9725C257.521 22.6022 257.059 23.2502 256.319 25.2865C255.58 27.3228 254.286 25.9344 254.009 24.6385C253.737 23.4436 253.302 22.2912 252.715 21.2138C251.883 19.7329 253.177 20.4734 253.269 17.8817C253.362 15.29 246.892 14.7346 244.951 14.8272C243.011 14.9197 241.439 17.7891 238.389 17.8817C235.339 17.9742 230.349 17.604 226.837 15.8453C223.325 14.0867 224.156 13.0685 222.678 13.3462C221.199 13.6239 219.628 15.4751 219.073 16.4007C218.519 17.3263 216.116 18.3445 216.116 17.0486C216.116 15.7528 218.888 15.1974 219.443 13.4388C219.997 11.6801 221.846 12.7909 223.047 11.9578C224.255 11.1229 225.343 10.1261 226.282 8.99591C226.705 8.42481 226.893 7.71301 226.807 7.00678C226.721 6.30054 226.368 5.65449 225.82 5.20094C224.803 4.27534 217.04 3.25717 215.099 3.25717C213.158 3.25717 213.066 0.6655 210.663 0.11014C208.26 -0.44522 202.899 1.12829 199.572 4.18278C196.245 7.23726 189.683 6.12655 187.188 6.21911C184.692 6.31167 180.164 11.4025 178.777 13.6239C177.391 15.8453 173.417 15.4751 170.552 15.9379C167.687 16.4007 167.872 19.3626 167.502 21.3989C167.132 23.4353 161.494 22.1394 160.385 22.1394C159.276 22.1394 159.091 19.5477 157.89 19.0849C156.688 18.6221 157.705 20.4733 156.781 22.1394C155.857 23.8055 156.504 24.546 155.764 26.6749C155.025 28.8038 156.319 30.5624 156.596 32.7838C156.873 35.0053 156.966 34.8201 155.672 34.8201C154.378 34.8201 154.748 32.8764 154.748 30.9326C154.748 28.9889 154.286 27.2302 154.563 25.4716C154.84 23.9416 154.84 22.3745 154.563 20.8436C154.286 19.4552 153.361 19.4552 152.53 17.2337C151.698 15.0123 151.236 16.2156 150.311 17.2337C149.387 18.2519 149.387 19.918 147.446 22.0469C145.505 24.1758 143.38 27.1377 143.749 28.8037C144.119 30.4698 147.261 33.5243 146.245 34.7276C145.228 35.9309 142.086 34.2648 140.237 33.1541C138.662 32.184 136.809 31.761 134.969 31.9508C133.028 32.0433 133.953 30.6549 133.028 28.8037C132.104 26.9525 130.441 28.3409 130.441 30.007C130.441 31.6731 131.827 31.0252 132.659 32.4136C133.491 33.802 132.844 34.1722 132.659 35.2829C132.474 36.3937 128.685 36.0234 124.433 36.0234C120.182 36.0234 121.476 34.9127 120.644 34.9127C119.575 34.8951 118.515 35.1284 117.552 35.5949C116.589 36.0605 115.749 36.7472 115.099 37.5969C113.343 40.0961 111.494 40.3738 109.276 40.4663C107.058 40.5589 107.428 34.5425 106.134 34.635C104.84 34.7276 104.285 38.8928 104.285 41.577C104.285 44.2613 103.546 44.1687 100.773 43.7985C98.0006 43.4282 97.8157 45.9274 96.2446 47.8711C94.6734 49.8149 94.581 46.8529 93.1946 47.686C91.8083 48.519 91.8083 50.5553 90.6068 48.519C90.349 48.1969 90.1863 47.8091 90.1364 47.4C90.0855 46.9899 90.1512 46.5743 90.324 46.1995C90.4968 45.8246 90.7704 45.5053 91.1142 45.2776C91.4581 45.049 91.8582 44.9221 92.2704 44.9092C93.7492 44.9092 97.2612 44.9092 99.6642 42.9654C102.067 41.0217 100.126 38.5226 96.7991 37.2267C93.4719 35.9309 84.9691 32.1359 82.5661 31.0252C80.1631 29.9145 80.7177 30.007 80.5328 28.8037C80.348 27.6005 72.7694 26.1195 69.7195 26.5823C66.6695 27.0451 64.8211 29.4517 60.2 32.8764C55.5789 36.3011 49.9412 44.3538 48.37 47.4083C46.7988 50.4628 40.4218 56.3866 38.1112 58.8857C35.8007 61.3849 38.2036 65.2724 38.3885 66.3831C38.5733 67.4938 40.1445 70.7334 42.2702 70.1781C44.3959 69.6227 44.858 67.9566 46.1519 66.6608C47.4458 65.365 47.7231 69.0674 48.6473 71.1037C49.5715 73.14 48.4624 76.4722 47.7231 76.5647C46.9837 76.6573 47.4458 73.5102 46.5216 72.3995C45.5974 71.2888 43.3792 74.2507 42.8247 75.3614C42.2702 76.4721 44.3035 79.4341 44.6731 80.915C45.0428 82.396 44.3959 82.7662 41.5308 83.229C38.6657 83.6918 34.5991 91.4669 32.9355 93.8734C31.272 96.28 28.0372 96.1874 25.9115 96.1874C23.7858 96.1874 21.8449 96.4651 21.2904 97.9461C20.7359 99.4271 23.7858 101.186 26.2812 103.222C28.7766 105.258 26.6508 108.405 26.2812 110.257C25.9115 112.108 17.3162 110.534 15.6526 111.09C13.989 111.645 13.6194 114.514 13.6194 114.514V121.641C13.6194 128.028 15.4678 125.529 17.8708 127.288C20.2738 129.046 18.8874 129.879 18.8874 130.712C18.8874 131.545 17.8708 134.045 15.4678 136.544C13.0029 139.354 11.4271 142.833 10.9391 146.54C10.1998 150.428 5.94839 152.279 3.9151 155.333C1.88182 158.388 1.14244 167.088 1.4197 169.588C1.69697 172.087 1.14241 172.642 0.125773 176.715C-0.890868 180.787 4.56201 184.767 5.48623 188.377C6.41045 191.987 13.5269 197.818 15.6526 199.67C17.7783 201.521 22.1222 198.744 23.8782 198.559C25.6342 198.374 25.9115 199.484 28.3145 198.281C30.7174 197.078 36.1703 195.319 36.7249 196.893C37.2794 198.466 42.5474 199.577 44.3959 201.15C46.2443 202.724 45.2276 207.167 45.2276 211.332C45.2276 215.497 49.8488 219.94 50.8654 225.124C51.8821 230.307 52.0669 236.694 50.1261 241.877C48.1852 247.06 51.6048 252.429 52.8063 255.113C54.0077 257.797 54.1002 263.166 54.6547 267.053C55.2092 270.941 57.5198 272.699 59.2758 276.309C61.0318 279.919 59.091 284.547 61.6788 285.75C64.2666 286.954 68.7028 283.436 71.5679 283.066C74.4348 282.683 77.1142 281.422 79.239 279.456C81.4571 277.327 82.6585 272.699 83.5827 271.311C84.7925 269.39 85.4931 267.192 85.616 264.924C85.7085 262.703 89.2205 261.685 90.422 259.001C91.6235 256.316 90.6992 255.668 89.9599 252.892C89.2205 250.115 92.0856 247.153 95.69 245.024C99.2945 242.895 99.1097 240.211 99.1097 238.082C99.1097 235.953 99.6641 231.88 98.8324 228.826C98.0006 225.771 96.7991 222.069 96.7991 219.107C96.7991 216.145 103.638 210.406 107.612 204.76C111.587 199.114 118.056 188.562 117.224 185.971C116.393 183.379 111.587 184.119 109.553 184.952C108.473 185.427 107.25 185.461 106.146 185.046C105.04 184.63 104.141 183.8 103.638 182.731C102.437 180.324 99.3869 178.01 97.7233 173.382C96.0597 168.755 94.6734 169.31 93.8416 165.978C92.5052 161.38 90.7408 156.918 88.5735 152.649C86.8175 149.409 88.019 150.057 89.4054 149.78C90.7917 149.502 94.0264 155.518 95.2279 159.498C96.4294 163.479 97.446 164.589 98.5551 168.107C100.236 172.584 102.212 176.943 104.47 181.158C105.302 182.453 108.352 180.787 112.326 178.751C116.3 176.715 118.98 176.344 121.198 174.493C123.417 172.642 132.012 163.849 132.289 162.275C132.566 160.702 131.642 159.591 130.256 158.018C128.604 156.442 126.698 155.159 124.618 154.223C122.954 153.39 121.014 155.426 120.089 155.981C119.165 156.537 117.409 155.704 117.224 153.667C117.039 151.631 113.712 148.854 112.788 147.373C111.864 145.892 112.603 142.745 113.99 142.375C115.376 142.005 121.106 149.039 122.215 150.705C123.324 152.371 126.466 151.538 127.483 152.186L133.768 154.963C135.247 155.704 141.439 154.315 143.01 154.963C144.581 155.611 146.984 158.943 147.631 160.331C148.278 161.72 151.42 163.571 152.067 163.201C152.714 162.831 154.193 164.034 154.101 165.515C154.008 166.996 154.932 170.791 156.042 173.29C157.151 175.789 159.923 183.194 160.016 185.971C160.108 188.747 162.696 191.247 164.082 190.784C165.469 190.321 166.115 188.1 166.762 186.711C167.409 185.323 167.594 183.472 167.872 182.639C168.149 181.805 167.687 176.992 167.687 175.882C167.687 174.771 172.677 173.105 175.727 170.421C178.777 167.736 179.517 164.589 180.348 163.108C181.18 161.627 184.045 162.553 184.785 162.09C185.524 161.627 186.91 161.072 187.188 162.275C187.465 163.479 189.313 164.404 190.7 165.978C192.086 167.551 191.901 168.847 191.716 170.606C191.532 172.364 192.363 174.956 193.01 174.863C193.657 174.771 195.783 173.012 196.615 172.827C197.447 172.642 197.262 174.586 197.724 176.622C198.186 178.658 198.833 178.751 199.387 179.862C199.942 180.972 199.295 186.341 199.295 188.007C199.295 189.673 199.849 189.21 200.959 191.617C201.942 193.902 202.655 196.294 203.084 198.744C203.362 200.688 207.336 204.76 208.26 204.668C209.184 204.575 208.999 201.798 208.999 199.484C208.999 197.17 208.352 196.615 205.857 194.116C204.21 192.419 202.782 190.523 201.606 188.47C201.143 187.637 200.496 186.156 201.051 184.86C201.606 183.564 201.698 182.268 202.437 180.695C203.177 179.121 204.008 180.695 204.563 181.805C205.118 182.916 206.689 183.379 208.537 185.415C210.386 187.452 210.386 186.896 211.033 188.285C211.68 189.673 213.158 189.673 213.343 187.544C213.528 185.415 216.485 184.86 217.872 183.101C219.258 181.343 218.519 177.548 216.67 174.401C214.822 171.254 213.251 169.958 212.419 166.903C211.587 163.849 219.351 163.201 220.829 162.923C223.617 162.014 226.31 160.837 228.87 159.406C231.181 158.11 234.23 155.426 234.97 153.297C235.709 151.168 239.314 148.669 240.238 144.411C241.162 140.153 237.835 133.582 237.096 131.175C236.356 128.769 239.498 129.231 240.423 127.38C241.347 125.529 241.439 124.788 239.961 124.233C238.482 123.678 237.65 124.511 236.449 125.714C235.247 126.917 234.877 125.344 234.508 124.233C234.138 123.122 238.297 120.16 238.205 121.271C238.112 122.382 239.868 122.104 241.624 121.827C243.38 121.549 244.489 121.179 244.859 123.307C245.229 125.436 245.506 125.159 247.816 126.64C250.127 128.121 247.539 131.083 247.909 132.471C248.279 133.859 252.53 131.453 253.454 129.787C254.378 128.121 251.791 123.678 250.682 121.271C249.573 118.865 252.622 118.217 254.194 115.995C255.765 113.774 258.722 113.496 261.033 112.941C263.343 112.385 266.116 106.462 267.41 104.61C268.704 102.759 272.493 96.6503 272.586 93.7809C272.678 90.9115 272.678 89.7083 274.249 89.6157C275.82 89.5231 274.064 101.186 273.879 102.852C273.695 104.518 275.913 103.777 275.913 103.129C275.913 102.482 278.593 102.389 278.685 101.741C278.778 101.093 277.299 97.0205 277.299 96.3726C277.299 95.7246 279.332 94.6139 279.148 92.7627C278.963 90.9115 277.761 90.6338 277.761 88.4124C277.761 86.191 278.316 80.5448 276.467 80.6374C274.619 80.7299 275.543 82.396 274.896 82.3034C274.249 82.2109 272.863 79.8969 270.83 81.1002C268.796 82.3034 268.519 83.0439 266.763 81.6555C265.007 80.2671 266.024 80.2671 265.284 79.1564C264.545 78.0457 274.711 68.1418 277.484 66.2906C280.257 64.4394 289.591 65.0873 291.44 66.3831C293.288 67.679 293.565 67.3087 295.968 66.7534C298.371 66.198 296.708 65.8278 297.817 62.7733C298.926 59.7188 301.421 59.9039 303.177 59.6262C304.933 59.3485 304.841 60.3667 306.412 62.0328C307.983 63.6989 309.832 60.6444 311.588 58.1453C313.344 55.6462 313.898 57.5899 313.436 58.9783C312.974 60.3667 307.798 62.6807 306.689 64.6245C305.58 66.5682 300.312 70.9186 299.388 73.3251C298.464 75.7317 298.094 89.0603 300.22 89.5231C302.345 89.9859 305.765 81.4704 309 78.6936C312.235 75.9168 311.865 75.0837 311.957 71.7516C312.05 68.4194 313.436 66.7534 314.175 64.9947C314.915 63.2361 321.292 64.5319 325.358 63.9766C329.425 63.4212 334.693 58.7006 335.063 57.775C335.432 56.8494 338.482 56.7569 339.684 55.3685C340.885 53.9801 338.113 51.6661 338.02 51.0181C337.928 50.3702 340.516 50 343.011 48.3339C345.506 46.6678 344.212 46.0199 345.691 45.5571C347.17 45.0943 350.497 49.3521 353.64 50C356.782 50.6479 355.673 48.0562 356.505 46.3901C357.336 44.7241 359 44.8166 359 43.9836C359 43.1505 346.708 36.3937 339.776 32.8764ZM51.9745 78.4159C54.285 77.8606 57.4274 76.8424 58.2592 74.8986C59.091 72.9549 61.8636 71.4739 60.2925 71.3814C58.7213 71.2888 57.7046 72.6772 58.0743 70.826C58.444 68.9748 61.6788 66.4757 61.3091 64.4394C60.9394 62.403 58.9061 61.0146 58.9061 59.7188C58.9061 58.4229 59.1834 54.9057 61.8636 53.6098C64.5438 52.314 66.6695 52.1289 66.6695 50C66.6695 47.8711 67.2241 45.9273 68.6104 45.9273C69.9968 45.9273 72.7694 46.205 71.8452 47.9637C70.921 49.7223 68.3331 50.7405 68.0559 52.8694C67.7786 54.9982 64.4514 57.4048 64.7287 59.0709C65.006 60.737 67.3165 64.5319 69.4422 64.4394C71.5679 64.3468 72.8618 62.6807 75.4496 63.5138C78.0374 64.3468 77.945 64.2542 77.0208 64.9947C76.0966 65.7352 68.2407 66.2906 68.0559 67.1236C67.871 67.9566 66.762 68.9748 65.9302 72.307C65.0984 75.6391 64.7287 79.5266 63.0651 80.4522C61.4015 81.3778 59.8303 80.1746 56.5031 81.1002C53.1759 82.0258 50.4033 82.396 48.5549 81.1002C48.1852 80.8225 49.6639 78.8787 51.9745 78.4159ZM85.2464 140.431C82.2889 140.801 82.9358 141.079 80.8101 141.264C78.299 141.558 75.7629 141.004 73.6012 139.691C71.5679 138.21 68.6104 135.896 67.4089 137.191C66.2074 138.487 64.7287 142.467 61.956 141.912C59.1834 141.357 55.8562 136.821 53.3608 136.173C50.8654 135.525 48.8321 134.878 48.7397 132.563C48.6473 130.249 47.4458 126.177 46.4292 126.269C45.4125 126.362 41.0687 126.547 38.6657 126.825C36.2627 127.103 29.6084 125.899 28.869 127.102C28.1296 128.306 26.1888 129.694 23.601 130.805C23.601 130.805 21.2904 130.805 22.3995 129.139C23.5085 127.473 27.2978 128.213 28.2221 125.714C29.1463 123.215 28.4993 118.865 29.978 118.124C31.4568 117.384 32.7507 118.772 33.7674 115.995C34.784 113.218 35.0613 111.275 36.54 111.275C38.0188 111.275 38.3885 113.681 40.5142 112.2C42.6399 110.719 43.0096 107.943 45.3201 110.164C47.6307 112.385 49.2018 114.514 50.8654 115.81C52.529 117.106 55.8562 118.402 55.9486 120.993C56.041 123.585 58.0743 123.77 55.3941 124.511C52.7138 125.251 50.773 124.048 50.8654 125.344C50.9578 126.64 52.0669 126.177 52.6214 127.288C53.1759 128.398 55.7638 129.231 56.1335 127.75C56.5032 126.269 57.6122 125.066 58.444 123.77C58.8886 123.276 59.2046 122.68 59.3664 122.035C59.5272 121.39 59.5281 120.714 59.3682 120.068C59.091 118.494 57.7971 116.088 55.0244 113.681C52.2517 111.275 49.3867 107.295 50.8654 106.924C52.3442 106.554 60.1076 114.329 61.4015 117.106C62.6954 119.883 62.6954 120.531 64.4514 122.012C66.2075 123.493 66.8544 124.141 67.3165 126.362C67.7786 128.583 70.274 128.676 70.3664 127.195C70.4588 125.714 71.9376 125.714 71.9376 124.511C71.9376 123.308 69.9043 123.215 70.0892 120.993C70.274 118.772 70.6437 115.532 71.9376 117.476C73.2315 119.42 72.9543 122.567 74.433 124.048C75.9118 125.529 77.0208 126.64 78.7768 128.769C80.5329 130.897 80.8101 128.306 83.7676 128.121C86.7251 127.936 85.8009 131.823 87.2796 130.805C88.7584 129.787 88.3887 128.583 88.9433 129.416C89.4978 130.25 89.775 129.972 89.775 132.471C89.775 134.97 88.2963 140.061 85.2464 140.431ZM94.9507 117.569C93.0098 117.199 90.9765 112.478 88.019 113.681C85.0615 114.885 80.8101 116.366 78.8692 115.162C78.8692 115.162 76.5587 114.514 77.5753 111.367C78.592 108.22 79.6086 104.333 81.9192 104.24C84.2297 104.148 85.2463 108.035 86.8175 107.572C88.3887 107.11 90.422 105.999 91.9932 107.295C93.5643 108.59 99.0172 112.385 100.404 113.496C101.79 114.607 96.8915 117.939 94.9507 117.569ZM122.677 118.032C121.383 119.142 119.997 117.939 121.014 120.068C122.03 122.197 123.786 125.899 121.753 126.825C119.72 127.75 114.821 127.75 113.805 124.511C112.788 121.271 116.855 119.79 115.838 117.569C114.821 115.347 111.124 112.293 111.402 107.943C111.229 106.999 111.359 106.025 111.775 105.159C112.19 104.295 112.868 103.584 113.712 103.129C116.577 101.648 120.829 104.24 122.123 104.24C123.417 104.24 122.4 106.184 120.367 106.739C118.333 107.295 115.746 108.498 116.485 109.609C117.224 110.719 118.518 114.699 120.274 115.44C122.03 116.18 123.879 117.013 122.677 118.032Z" fill="#FFFEE6" fill-opacity="0.3"/>
</svg>
