<svg width="295" height="504" viewBox="0 0 295 504" fill="none" xmlns="http://www.w3.org/2000/svg">
<g opacity="0.3">
<path d="M101.602 390.031C99.0309 364.516 81.5013 339 50.8831 339C20.2649 339 2.96913 364.516 0.398129 390.031C-3.57523 429.486 22.8359 465.161 50.8831 498C79.1641 465.161 105.575 429.486 101.602 390.031ZM44.8063 418.382C39.295 418.427 33.8959 416.818 29.2915 413.758C24.687 410.696 21.0853 406.323 18.9444 401.19C16.8034 396.058 16.2191 390.397 17.2662 384.928C18.3109 379.459 20.9428 374.427 24.8226 370.472C28.7025 366.517 33.6575 363.814 39.0612 362.711C44.4627 361.607 50.065 362.151 55.1626 364.27C60.2579 366.392 64.6146 369.994 67.6811 374.623C70.7476 379.251 72.386 384.697 72.386 390.267C72.386 397.681 69.4878 404.797 64.3224 410.063C59.157 415.329 52.1429 418.318 44.8063 418.382Z" fill="#E6EAFA"/>
<path d="M294.762 207.49C293.224 192.245 282.741 177 264.43 177C246.119 177 235.776 192.245 234.238 207.49C231.862 231.064 247.657 252.379 264.43 272C281.343 252.379 297.138 231.064 294.762 207.49ZM260.796 224.429C257.5 224.456 254.271 223.495 251.517 221.667C248.764 219.837 246.61 217.225 245.329 214.157C244.049 211.091 243.7 207.709 244.326 204.441C244.951 201.173 246.525 198.167 248.845 195.804C251.165 193.441 254.128 191.826 257.36 191.167C260.59 190.508 263.941 190.832 266.989 192.098C270.037 193.366 272.642 195.519 274.476 198.284C276.31 201.049 277.29 204.303 277.29 207.631C277.29 212.061 275.556 216.313 272.467 219.459C269.378 222.606 265.184 224.391 260.796 224.429Z" fill="#E6EAFA"/>
<path d="M56.8635 42.6523C55.9813 33.8262 49.9662 25 39.4599 25C28.9536 25 23.0188 33.8262 22.1366 42.6523C20.7732 56.3002 29.8359 68.6404 39.4599 80C49.1642 68.6404 58.2269 56.3002 56.8635 42.6523ZM37.3747 52.4591C35.4836 52.4747 33.631 51.9181 32.051 50.8598C30.4711 49.8007 29.2352 48.2879 28.5005 46.5121C27.7659 44.7371 27.5654 42.779 27.9247 40.8871C28.2832 38.9952 29.1863 37.2545 30.5176 35.8864C31.8489 34.5184 33.5492 33.5834 35.4034 33.2018C37.2568 32.8201 39.1792 33.0081 40.9284 33.7412C42.6768 34.4751 44.1717 35.7213 45.224 37.3223C46.2762 38.9232 46.8384 40.807 46.8384 42.734C46.8384 45.2985 45.8439 47.76 44.0715 49.5817C42.299 51.4033 39.8922 52.4371 37.3747 52.4591Z" fill="#E6EAFA"/>
<path d="M67 59.7573C116.647 43.0073 263.706 6.2046 271 152" stroke="#E6EAFA" stroke-width="2" stroke-miterlimit="10" stroke-dasharray="4.89 4.89"/>
<path d="M67 502.567C77.6875 503.679 88.4902 502.643 98.7782 499.523C109.064 496.405 118.633 491.262 126.923 484.394C139.848 473.774 160.762 449.7 155.123 431.527C149.483 413.354 123.868 412.41 120.344 432C118.464 442.148 124.808 452.297 133.738 457.017C159.117 470.942 184.967 458.197 199.771 435.304C207.117 423.857 211.704 410.846 213.166 397.306C214.811 381.493 207.056 367.096 207.291 351.283C207.291 324.378 229.381 308.565 251 297" stroke="#E6EAFA" stroke-width="2" stroke-miterlimit="10" stroke-dasharray="5.02 5.02"/>
<path d="M265.5 40.6518L254.097 30.9048L260.38 4.75459L254.795 0L243.624 22.1088L231.756 12.3619L232.454 5.23001L227.334 0.71316L224.542 11.1732L215 15.6902L220.12 19.9693L226.636 18.3051L238.039 28.7653L218.258 43.5045L223.843 48.4968L248.279 38.0367L259.216 48.0213C259.654 48.6133 260.217 49.0959 260.862 49.4382C261.506 49.7805 262.218 49.9708 262.944 49.9969C263.671 50.0231 264.394 49.8828 265.06 49.5856C265.728 49.2908 266.321 48.8463 266.798 48.2853C267.275 47.7266 267.624 47.0656 267.82 46.3501C268.015 45.6345 268.053 44.8833 267.927 44.1535C267.804 43.4213 267.52 42.7271 267.101 42.1209C266.68 41.5171 266.133 41.0131 265.5 40.6518Z" fill="#FFFEE6"/>
</g>
</svg>
