<svg width="628" height="450" viewBox="0 0 628 450" fill="none" xmlns="http://www.w3.org/2000/svg">
<g clip-path="url(#clip0_443_7346)">
<path d="M508.136 286.333C508.697 286.385 509.261 286.263 509.751 285.984C510.241 285.705 510.633 285.282 510.874 284.773C511.116 284.263 511.195 283.692 511.1 283.136C511.006 282.58 510.744 282.067 510.348 281.666C510.291 281.387 510.251 281.187 510.195 280.909C510.222 280.85 510.25 280.791 510.278 280.733C510.907 279.421 511.909 278.324 513.16 277.579C514.41 276.835 515.853 276.477 517.306 276.55C518.759 276.623 520.158 277.124 521.328 277.99C522.497 278.856 523.385 280.048 523.879 281.416C525.855 286.879 528.438 292.379 528.871 298.077C529.062 300.596 528.814 303.129 528.139 305.563C533.896 294.407 537.186 282.143 537.787 269.603C537.935 266.457 537.906 263.304 537.702 260.16C537.532 257.583 537.249 255.019 536.854 252.468C534.691 238.625 529.276 225.492 521.052 214.148C516.933 211.645 513.68 207.94 511.731 203.531C511.025 201.946 510.552 200.267 510.326 198.547C510.8 198.631 511.283 198.693 511.758 198.746C511.906 198.761 512.062 198.776 512.211 198.791L512.267 198.796C512.789 198.844 513.315 198.74 513.78 198.496C514.245 198.252 514.63 197.879 514.888 197.422C515.146 196.964 515.266 196.442 515.234 195.918C515.202 195.394 515.019 194.89 514.708 194.467C514.513 194.204 514.319 193.942 514.125 193.679C513.83 193.273 513.528 192.876 513.233 192.47C513.199 192.431 513.167 192.391 513.137 192.348C512.798 191.886 512.459 191.431 512.12 190.969C512.824 189.981 513.747 189.169 514.816 188.596C518.517 186.653 523.421 188.346 525.872 191.727C528.331 195.108 528.61 199.703 527.514 203.733C526.461 207.157 524.833 210.376 522.7 213.254C522.883 213.513 523.075 213.765 523.259 214.024C526.617 218.783 529.501 223.861 531.869 229.183C531.505 223.327 532.537 217.469 534.88 212.09C537.233 207.085 541.398 202.971 545.096 198.721C549.537 193.617 558.03 196.33 558.457 203.083C558.461 203.148 558.465 203.213 558.468 203.279C557.936 203.547 557.414 203.834 556.902 204.14C556.258 204.527 555.747 205.101 555.435 205.784C555.123 206.468 555.024 207.229 555.153 207.97C555.281 208.71 555.63 209.394 556.154 209.933C556.677 210.472 557.352 210.84 558.088 210.989L558.164 211.004C557.892 212.865 557.479 214.702 556.929 216.5C555.343 221.518 552.738 226.154 549.276 230.117C545.815 234.081 541.572 237.286 536.814 239.533C536.502 239.675 536.197 239.818 535.886 239.952C538.162 247.505 539.446 255.322 539.707 263.207C539.845 267.858 539.608 272.512 538.996 277.125L539.027 276.962C540.267 271.859 543.231 267.34 547.417 264.169C553.631 259.531 562.171 258.114 568.811 254.463C569.518 254.054 570.327 253.856 571.142 253.892C571.958 253.928 572.746 254.197 573.414 254.666C574.082 255.135 574.602 255.786 574.912 256.541C575.223 257.296 575.311 258.124 575.166 258.927C575.155 258.984 575.143 259.041 575.132 259.099C574.151 259.446 573.193 259.854 572.263 260.32C571.73 260.589 571.208 260.876 570.696 261.181C570.053 261.569 569.541 262.142 569.229 262.826C568.917 263.509 568.819 264.271 568.947 265.011C569.075 265.751 569.424 266.436 569.948 266.974C570.472 267.513 571.146 267.881 571.882 268.03L571.958 268.045C572.012 268.056 572.059 268.066 572.113 268.076C570.286 271.926 567.809 275.433 564.792 278.443C561.069 282.083 556.641 284.925 551.78 286.793C546.919 288.661 541.728 289.517 536.525 289.308L536.517 289.307C534.82 295.378 532.496 301.255 529.583 306.844L507.776 305.829C507.709 305.583 507.65 305.33 507.591 305.084C509.604 305.305 511.636 305.279 513.642 305.006C512.117 302.945 510.592 300.869 509.066 298.808C509.032 298.769 509 298.728 508.97 298.686C508.197 297.632 507.415 296.585 506.642 295.531L506.641 295.529C506.743 292.413 507.245 289.322 508.135 286.333L508.136 286.333Z" fill="#F2F2F2"/>
<path d="M68.741 97.7598C68.184 97.8464 67.6139 97.7597 67.1078 97.5114C66.6017 97.2632 66.1841 96.8653 65.9117 96.3718C65.6393 95.8783 65.5251 95.313 65.5848 94.7524C65.6444 94.1919 65.8749 93.6632 66.245 93.238C66.2841 92.9566 66.3122 92.7545 66.3513 92.4731C66.3201 92.4162 66.2888 92.3593 66.2574 92.3025C65.5486 91.0317 64.48 89.9988 63.186 89.3334C61.892 88.668 60.4302 88.3998 58.9842 88.5625C57.5383 88.7252 56.1726 89.3116 55.0588 90.248C53.9451 91.1843 53.1328 92.4289 52.7241 93.8254C51.0899 99.3994 48.8517 105.048 48.7709 110.763C48.7363 113.289 49.1401 115.801 49.9643 118.189C43.5294 107.41 39.4875 95.3727 38.1127 82.8942C37.7709 79.7625 37.6046 76.6142 37.6143 73.464C37.6246 70.8812 37.7484 68.3044 37.9856 65.7337C39.2888 51.7835 43.8825 38.3413 51.3895 26.5112C55.3463 23.7586 58.3641 19.8592 60.0365 15.3385C60.6436 13.7129 61.0122 12.0079 61.1309 10.2766C60.6632 10.3904 60.1851 10.4818 59.714 10.5645C59.567 10.5883 59.4123 10.613 59.2653 10.6369L59.2099 10.6454C58.6909 10.7256 58.1599 10.654 57.6806 10.4393C57.2014 10.2246 56.7945 9.87603 56.5088 9.43544C56.2231 8.99486 56.0709 8.48108 56.0704 7.95597C56.0699 7.43087 56.2212 6.91683 56.5061 6.47571C56.6835 6.20129 56.8611 5.92698 57.0388 5.65279C57.3077 5.22997 57.5852 4.81412 57.854 4.39137C57.8859 4.35052 57.9154 4.30786 57.9425 4.26362C58.2521 3.78129 58.5625 3.30679 58.8721 2.82446C58.1087 1.88172 57.1378 1.12808 56.0352 0.62228C52.2207 -1.08795 47.4315 0.904796 45.194 4.43033C42.9487 7.95666 42.9536 12.5607 44.2967 16.5153C45.5592 19.8673 47.383 22.98 49.6899 25.72C49.5225 25.9901 49.3465 26.2533 49.1791 26.5234C46.1213 31.4813 43.5568 36.7269 41.5223 42.1851C41.5233 36.3182 40.1315 30.5348 37.4612 25.3107C34.8033 20.4606 30.3916 16.6121 26.4388 12.5991C21.6907 7.77891 13.3812 11.0118 13.373 17.7777C13.3729 17.8432 13.373 17.9086 13.3733 17.9741C13.9211 18.2091 14.46 18.4633 14.99 18.7365C15.6562 19.0839 16.202 19.6244 16.5557 20.2873C16.9095 20.9502 17.0547 21.7044 16.9725 22.4513C16.8902 23.1981 16.5843 23.9027 16.0948 24.4727C15.6053 25.0427 14.955 25.4515 14.2291 25.6456L14.1548 25.6655C14.541 27.5059 15.0666 29.3143 15.727 31.075C17.6197 35.985 20.5064 40.4511 24.206 44.1932C27.9056 47.9353 32.3384 50.8728 37.2265 52.8214C37.5468 52.944 37.8593 53.0674 38.1788 53.1822C36.3736 60.8616 35.5745 68.743 35.8018 76.6284C35.9508 81.279 36.4755 85.9099 37.371 90.4758L37.3299 90.315C35.7767 85.2984 32.5398 80.9715 28.1659 78.065C21.6773 73.82 13.0662 72.9335 6.21256 69.6995C5.48195 69.3353 4.66244 69.1877 3.85067 69.274C3.03891 69.3603 2.26875 69.6769 1.63104 70.1865C0.993321 70.6962 0.514646 71.3775 0.251472 72.1503C-0.0117013 72.9231 -0.0484017 73.755 0.145704 74.5479C0.160541 74.6042 0.175534 74.6605 0.19067 74.7168C1.19101 75.0027 2.17255 75.3507 3.12961 75.7587C3.67748 75.9938 4.21639 76.248 4.74634 76.5211C5.41255 76.8685 5.95829 77.4091 6.31204 78.072C6.6658 78.7348 6.81106 79.4891 6.72881 80.2359C6.64657 80.9828 6.34065 81.6874 5.85112 82.2574C5.3616 82.8274 4.71131 83.2362 3.98545 83.4303L3.91107 83.4502C3.85748 83.4639 3.81163 83.4768 3.75813 83.4905C5.8199 87.2204 8.50833 90.5676 11.7056 93.3855C15.647 96.7888 20.2419 99.3511 25.2087 100.915C30.1754 102.48 35.4094 103.013 40.5896 102.483L40.5974 102.482C42.6669 108.436 45.3494 114.158 48.6019 119.557L70.3048 117.197C70.3565 116.947 70.3993 116.69 70.4432 116.442C68.448 116.786 66.4182 116.886 64.3989 116.737C65.7943 114.586 67.1878 112.419 68.5832 110.269C68.6151 110.228 68.6446 110.185 68.6716 110.141C69.3784 109.041 70.0938 107.948 70.8006 106.848L70.8009 106.846C70.5072 103.742 69.8152 100.688 68.7417 97.7602L68.741 97.7598Z" fill="#F2F2F2"/>
<path d="M368.586 89.717C369.66 90.0126 370.656 90.5401 371.505 91.2624C372.353 91.9846 373.033 92.8841 373.496 93.8975C373.959 94.9108 374.194 96.0134 374.185 97.1275C374.176 98.2416 373.922 99.3402 373.443 100.346L385.089 113.294L378.947 122.291L362.757 103.774C361.121 102.857 359.878 101.371 359.265 99.598C358.651 97.8254 358.709 95.8893 359.427 94.1565C360.146 92.4238 361.475 91.0148 363.163 90.1966C364.851 89.3784 366.78 89.2077 368.586 89.717Z" fill="#A0616A"/>
<path d="M477.617 121.512C476.567 119.803 475.19 118.318 473.565 117.142C471.94 115.967 470.099 115.123 468.148 114.661C466.196 114.199 464.172 114.126 462.192 114.447C460.213 114.769 458.316 115.478 456.611 116.534L418.309 140.256L376.992 105.135L366.712 114.706L412.355 173.925L471.678 143C470.293 143.722 479.29 124.234 477.617 121.512Z" fill="#CCCCCC"/>
<path d="M401.74 200.389C401.743 219.306 398.02 238.038 390.783 255.516C383.545 272.993 372.936 288.874 359.559 302.25C346.183 315.626 330.303 326.236 312.825 333.473C295.348 340.711 276.615 344.434 257.699 344.43C178.148 344.43 113.658 279.94 113.658 200.389C113.644 184.915 116.124 169.541 121.004 154.856C130.583 126.178 148.936 101.236 173.466 83.5591C197.996 65.8816 227.462 56.3627 257.699 56.3483C283.775 56.3392 309.365 63.4116 331.736 76.8105C354.107 90.2095 372.42 109.432 384.719 132.426C387.768 138.099 390.428 143.973 392.681 150.007C392.993 150.847 393.297 151.687 393.593 152.536V152.544C394.914 156.273 396.077 160.071 397.082 163.939C400.184 175.84 401.75 188.09 401.74 200.389Z" fill="#3F3D56"/>
<path d="M241.939 103.207C235.466 99.706 228.279 97.73 220.926 97.4292C213.573 97.1284 206.249 98.5107 199.511 101.471C193.579 104.052 187.333 108.684 185.354 117.047C193.357 112.323 203.718 119.786 205.778 131.759L205.297 131.891C204.209 140.184 206.638 149.212 211.339 154.354C211.956 149.013 215.468 145.378 218.922 143.108C222.377 140.837 226.198 139.187 228.834 135.284C231.96 130.657 232.754 123.894 233.995 117.725C235.237 111.556 237.593 104.926 241.939 103.207Z" fill="white"/>
<path d="M197.137 173.774C194.921 177.103 191.96 179.191 189.303 181.792C186.654 184.401 184.134 187.922 183.605 192.443C183.269 195.34 183.79 198.285 183.717 201.214C183.646 204.142 182.669 207.439 180.677 208.167C177.532 209.304 175.131 203.462 171.898 203.054C169.329 202.734 167.017 206.775 167.761 210.28C168.505 213.785 172.002 215.337 174.011 213.049C175.827 216.098 174.547 221.627 171.818 222.564C171.53 224.484 171.242 226.397 170.962 228.317C164.064 223.492 157.094 218.586 151.228 211.52C144.705 203.728 140.658 194.165 139.609 184.057C138.849 175.934 139.977 166.644 136.248 160.394C133.263 155.393 128.142 154.288 123.532 154.6C122.692 154.656 121.844 154.752 121.004 154.856C123.722 146.692 127.174 138.791 131.319 131.25C132.256 130.847 133.128 130.305 133.903 129.641C138.193 126 140.097 118.63 143.578 113.532C143.802 113.204 144.034 112.884 144.274 112.572C147.835 107.923 152.605 105.53 157.214 103.306C167.417 98.3522 177.916 93.3348 188.687 94.0229L185.622 94.319C182.045 104.338 178.465 114.357 174.883 124.376C174.339 125.912 173.789 127.451 173.235 128.993C171.202 134.69 169.105 140.756 169.417 147.134C169.601 150.911 170.914 154.944 173.411 156.241C175.739 157.441 178.284 155.969 180.533 154.512C181.485 153.904 182.429 153.296 183.381 152.68C186.798 150.479 190.583 148.222 194.192 149.695C197.497 151.039 199.938 155.528 200.402 160.37C200.828 165.076 199.679 169.79 197.137 173.774Z" fill="white"/>
<path d="M217.46 242.175C207.48 236.03 197.5 229.886 187.521 223.741L187.69 223.305C181.485 225.668 178.909 236.698 179.935 245.717C180.96 254.737 184.437 262.8 186.194 271.589C188.562 283.616 187.668 296.058 183.605 307.622C196.727 292.898 208.341 276.895 218.271 259.854C219.658 257.706 220.715 255.362 221.406 252.901C222.04 250.282 221.943 247.134 220.673 245.034C219.856 243.828 218.752 242.846 217.46 242.175Z" fill="white"/>
<path d="M178.074 130.387C177.014 132.769 176.606 135.946 177.568 138.412C178.55 140.929 180.626 142.067 182.538 143.015L188.052 145.748C189.886 146.657 191.864 147.576 193.734 146.828C195.989 145.925 197.553 142.389 197.149 139.106C196.718 135.613 194.516 133.21 192.48 131.164C189.63 128.3 186.78 125.436 183.93 122.573L182.324 124.54C180.586 126.234 179.149 128.211 178.074 130.387Z" fill="white"/>
<path d="M372.179 167.732C374.66 168.316 377.141 168.9 379.621 169.484C379.189 177.863 375.036 185.617 369.466 188.426C367.146 189.594 364.561 190.026 362.64 192.211C360.904 194.195 360.024 197.284 359.215 200.237C357.799 205.391 356.383 210.544 354.966 215.697C353.446 221.251 351.493 227.421 347.54 229.421C344.147 231.142 340.266 229.037 337.657 225.508C335.049 221.979 333.456 217.234 331.912 212.609C332.008 217.65 329.663 222.595 326.342 224.348C323.013 226.1 318.964 224.516 316.739 220.603C315.139 217.794 314.475 214.089 312.906 211.24C311.338 208.391 308.049 206.759 306.336 209.432C305.208 211.208 305.352 213.929 304.792 216.186C303.92 219.691 301.279 221.891 298.662 222.083C296.054 222.275 293.509 220.771 291.324 218.73C286.819 214.505 283.498 207.799 282.21 200.349C281.641 197.028 281.481 193.411 282.466 190.298C283.45 187.185 285.827 184.785 288.187 185.377C289.74 182.096 286.675 177.743 283.914 178.127C281.145 178.511 278.977 181.48 276.704 183.76C274.439 186.041 271.271 187.697 268.99 185.433C269.006 187.537 267.293 188.93 265.813 188.754C264.34 188.586 263.028 187.401 261.676 186.561C256.45 183.304 249.816 185.465 246.103 191.627C248.424 181.752 251.825 170.421 258.955 168.1C261.868 167.148 265.045 167.932 267.797 166.283C272.671 163.363 273.655 152.327 269.446 147.774C269.982 152.079 269.878 157.105 267.605 160.05C265.333 162.994 260.563 161.074 260.852 156.721C260.195 159.721 256.93 160.178 255.426 157.873C253.914 155.568 254.042 151.799 255.114 149.046C256.186 146.294 258.011 144.317 259.779 142.421C263.58 138.347 267.437 134.226 271.839 131.665C276.248 129.105 281.337 128.241 285.755 130.785C288.083 132.13 290.132 134.37 292.508 135.555C294.885 136.747 297.902 136.595 299.479 133.81C301.247 130.705 300.415 126.096 301.071 122.215C302.247 115.357 309.105 112.148 312.906 116.677C310.066 115.949 307.129 119.31 306.776 123.383C306.416 127.456 308.473 131.569 311.226 132.802C315.851 134.85 320.38 129.697 323.877 124.928C327.526 119.934 331.181 114.943 334.841 109.955C335.425 109.106 336.081 108.308 336.801 107.571C337.947 106.453 339.475 105.814 341.076 105.781C342.676 105.748 344.229 106.325 345.42 107.395C349.117 110.411 350.853 116.597 353.886 120.854C358.287 127.04 364.873 128.545 371.003 129.745C375.572 130.633 380.144 131.527 384.719 132.426C387.768 138.099 390.428 143.973 392.681 150.007C384.935 153.296 377.789 159.45 372.179 167.732Z" fill="white"/>
<path d="M386.951 264.015C383.523 270.977 379.536 277.649 375.028 283.965C372.147 282.733 369.05 284.933 366.354 286.998C363.537 289.158 360.152 291.263 357.263 289.295C354.31 287.278 353.358 281.636 354.294 277.163C355.23 272.698 357.567 269.145 359.832 265.768C362.232 262.183 364.801 258.462 368.138 257.069C371.483 255.677 375.78 257.645 376.757 262.399L379.125 262.319C377.797 260.494 378.493 256.717 380.278 256.053C382.334 255.277 384.119 258.102 385.335 260.598C385.879 261.727 386.431 262.863 386.951 264.015Z" fill="white"/>
<path d="M296.233 230.214C291.142 230.535 287.109 224.267 284.429 218.101C281.749 211.935 279.304 204.884 274.71 201.745C272.085 199.952 269.092 199.706 266.245 198.837C263.398 197.968 260.418 196.17 259.057 192.508L255.827 191.203C251.562 193.601 247.24 196.044 243.565 199.946C239.443 204.325 236.876 209.938 236.259 215.92C235.642 222.384 237.92 229.593 242.177 232.021C245.54 233.94 249.456 232.73 252.863 234.487C257.12 236.682 259.647 243.057 260.604 249.352C261.561 255.647 261.318 262.189 262.003 268.556C262.687 274.922 264.574 281.547 268.477 284.809C273.363 288.892 280.531 285.499 282.722 278.067C283.798 274.422 283.76 270.308 284.565 266.524C285.981 259.86 289.802 254.916 292.832 249.449C295.863 243.983 298.249 236.558 296.233 230.214Z" fill="white"/>
<path d="M245.923 164.73C246.398 165.168 246.841 165.638 247.249 166.138C247.671 166.866 247.887 167.695 247.872 168.537C247.858 169.378 247.614 170.2 247.167 170.913C247.781 170.878 248.38 170.716 248.928 170.438C249.475 170.16 249.959 169.771 250.349 169.296C251.278 168.238 252.096 167.086 252.788 165.86C253.307 165.013 253.86 163.868 253.507 162.863C253.267 162.176 252.698 161.884 252.299 161.367C251.667 160.549 251.511 159.25 251.184 158.126C250.477 155.701 248.785 153.917 246.948 153.662L247.203 153.711C246.435 153.974 245.9 155.193 246.069 156.289C246.224 157.288 246.865 158.117 246.802 159.135C246.71 160.6 245.246 161.287 245.156 162.752C245.142 163.487 245.417 164.197 245.923 164.73Z" fill="white"/>
<path d="M237.2 139.843C237.208 139.841 237.215 139.841 237.223 139.839C237.379 139.696 237.525 139.541 237.657 139.376L237.2 139.843Z" fill="#E6E6E6"/>
<path d="M238.727 146.718C239.853 145.994 240.481 143.992 240.109 142.316C239.739 140.651 238.43 139.531 237.223 139.839C236.872 140.194 236.438 140.454 235.959 140.595C235.481 140.736 234.974 140.753 234.487 140.644C233.741 140.452 232.921 139.957 232.274 140.519C231.904 140.939 231.644 141.446 231.52 141.992C231.28 142.727 231.041 143.463 230.801 144.198C230.687 144.462 230.658 144.754 230.716 145.035C230.762 145.147 230.836 145.246 230.931 145.322C231.026 145.397 231.139 145.447 231.259 145.467C232.697 145.89 234.135 146.314 235.573 146.738C236.621 147.047 237.752 147.345 238.727 146.718Z" fill="white"/>
<path d="M347.271 241.624C346.607 240.536 345.942 239.448 345.277 238.359C344.625 237.099 343.732 235.979 342.65 235.06C342.412 234.861 342.137 234.711 341.84 234.62C341.543 234.529 341.232 234.498 340.923 234.528C340.614 234.559 340.314 234.652 340.042 234.8C339.769 234.948 339.529 235.15 339.335 235.392L339.416 236.014C340.931 237.915 342.534 240.026 342.918 242.847C343.07 243.959 343.017 245.11 343.15 246.227C343.283 247.343 343.661 248.502 344.381 248.983C345.428 249.683 346.657 248.652 347.402 247.394C348.068 246.361 348.366 245.133 348.25 243.91C348.084 243.089 347.751 242.311 347.271 241.624Z" fill="white"/>
<path d="M376.851 200.066C377.043 198.806 377.235 197.545 377.427 196.285C377.74 194.9 377.778 193.468 377.542 192.069C377.488 191.763 377.374 191.471 377.206 191.21C377.038 190.95 376.819 190.725 376.563 190.55C376.307 190.375 376.018 190.252 375.714 190.19C375.41 190.128 375.097 190.128 374.792 190.188L374.454 190.716C374.389 193.146 374.256 195.793 372.733 198.199C372.133 199.147 371.351 199.994 370.734 200.934C370.116 201.874 369.659 203.003 369.901 203.836C370.251 205.045 371.855 205.047 373.235 204.565C374.41 204.203 375.428 203.456 376.127 202.445C376.529 201.71 376.775 200.9 376.851 200.066Z" fill="#E6E6E6"/>
<path d="M357.697 243.04C358.022 242.106 357.553 241.034 357.454 240.002C357.407 238.668 357.76 237.351 358.469 236.221C359.173 235.155 359.707 233.985 360.05 232.754C360.195 232.193 360.169 231.602 359.975 231.056C359.755 230.562 359.222 230.337 358.916 230.728L359.57 231.149C358.687 230.992 357.78 231.036 356.916 231.278C356.423 231.466 355.983 231.771 355.633 232.166C355.282 232.561 355.032 233.034 354.904 233.546C354.796 234.344 354.619 235.131 354.376 235.899C353.986 236.701 353.231 236.967 352.756 237.671C352.433 238.295 352.269 238.99 352.281 239.693C352.293 240.396 352.479 241.085 352.823 241.698C353.419 242.7 354.367 243.445 355.481 243.788C356.28 244.075 357.332 244.09 357.697 243.04Z" fill="white"/>
<path d="M376.264 248.642C376.553 249.393 376.94 250.103 377.415 250.753C378.304 251.649 379.512 251.098 380.59 250.881C381.569 250.726 382.571 250.839 383.49 251.208C384.41 251.577 385.212 252.188 385.813 252.976C385.395 250.89 384.482 248.935 383.152 247.275C381.821 245.615 380.112 244.299 378.167 243.437C375.625 242.401 372.948 242.3 370.304 242.207L369.848 242.324C371.011 245.711 374.665 245.636 376.264 248.642Z" fill="white"/>
<path d="M297.626 255.57L297.632 255.584C297.677 255.499 297.721 255.414 297.765 255.329L297.626 255.57Z" fill="#E6E6E6"/>
<path d="M294.809 261.022C294.195 262.137 293.666 263.297 293.229 264.493C292.649 266.43 292.265 268.419 292.083 270.433C291.94 271.577 291.896 273.039 292.613 273.597C292.819 273.734 293.068 273.791 293.313 273.758C293.558 273.724 293.782 273.603 293.944 273.416C294.343 272.995 294.669 272.51 294.909 271.982C296.319 269.555 297.413 266.957 298.166 264.253C298.852 261.404 298.846 258.051 297.632 255.584C296.691 257.397 295.75 259.209 294.809 261.022Z" fill="white"/>
<path d="M267.636 115.768C268.083 116.205 268.649 116.502 269.263 116.622C269.877 116.742 270.513 116.679 271.092 116.442C272.291 115.918 273.391 115.191 274.344 114.294C275.133 113.71 275.802 112.98 276.315 112.144C276.598 111.644 276.779 111.093 276.848 110.523C276.917 109.953 276.873 109.374 276.718 108.821C276.273 107.519 275.143 107.082 274.146 106.787C272.55 106.314 270.954 105.84 269.358 105.367L270.513 104.327C269.325 103.689 268.011 104.872 267.269 106.337C266.792 107.293 266.461 108.315 266.284 109.368C265.886 111.667 266.275 114.405 267.636 115.768Z" fill="#E6E6E6"/>
<path d="M295.812 106.309C296.262 106.805 296.883 107.111 297.551 107.165C298.218 107.219 298.881 107.018 299.405 106.601C299.856 106.262 300.231 105.832 300.504 105.339C300.778 104.846 300.945 104.301 300.994 103.739C301.107 102.483 300.486 101.088 299.6 100.98L299.803 99.8043C298.095 99.4959 295.994 99.4342 295.079 101.508C294.77 102.302 294.675 103.164 294.804 104.006C294.933 104.849 295.28 105.643 295.812 106.309Z" fill="#E6E6E6"/>
<path d="M292.048 43.807C282.036 42.6777 271.986 45.5717 264.109 51.8523C256.231 58.133 251.171 67.2857 250.042 77.2972C247.69 98.1449 258.673 143.416 278.698 162.157C288.126 126.252 321.166 104.955 325.538 85.8132C330.209 65.3599 312.896 46.1587 292.048 43.807Z" fill="#072AC8"/>
<path d="M285.124 90.1537C291.966 90.1537 297.513 84.607 297.513 77.7647C297.513 70.9225 291.966 65.3757 285.124 65.3757C278.282 65.3757 272.735 70.9225 272.735 77.7647C272.735 84.607 278.282 90.1537 285.124 90.1537Z" fill="white"/>
<path d="M272.097 180.02C276.579 180.02 280.212 176.387 280.212 171.906C280.212 167.424 276.579 163.791 272.097 163.791C267.616 163.791 263.983 167.424 263.983 171.906C263.983 176.387 267.616 180.02 272.097 180.02Z" fill="#072AC8"/>
<path opacity="0.2" d="M295.374 68.8887C296.769 69.7266 297.985 70.8311 298.952 72.1389C299.92 73.4467 300.621 74.9323 301.014 76.5109C301.408 78.0895 301.487 79.7302 301.246 81.3392C301.006 82.9483 300.451 84.4942 299.613 85.8887C298.775 87.2832 297.67 88.4991 296.362 89.4667C295.055 90.4344 293.569 91.1351 291.99 91.5286C288.802 92.3234 285.429 91.8192 282.613 90.1269C285.484 90.7656 288.489 90.3617 291.09 88.9872C293.691 87.6127 295.718 85.3575 296.808 82.6251C297.898 79.8928 297.98 76.8618 297.039 74.0745C296.099 71.2872 294.197 68.9256 291.674 67.4125C292.979 67.7017 294.229 68.2002 295.374 68.8887Z" fill="#231F20"/>
<path opacity="0.2" d="M325.586 85.8533C321.215 104.995 288.175 126.292 278.746 162.197C276.863 160.417 275.114 158.501 273.513 156.464C284.109 122.714 315.092 102.206 319.316 83.7122C323.096 67.1597 312.477 51.4288 297.239 44.7836C315.684 49.4204 329.867 67.1098 325.586 85.8533Z" fill="#231F20"/>
<path d="M175.951 92.147C168.432 91.299 160.885 93.4723 154.969 98.1888C149.053 102.905 145.253 109.779 144.405 117.297C142.639 132.953 150.887 166.95 165.925 181.024C173.006 154.06 197.817 138.067 201.1 123.692C204.608 108.333 191.606 93.913 175.951 92.147Z" fill="#072AC8"/>
<path d="M170.751 126.952C175.889 126.952 180.054 122.786 180.054 117.648C180.054 112.51 175.889 108.344 170.751 108.344C165.612 108.344 161.447 112.51 161.447 117.648C161.447 122.786 165.612 126.952 170.751 126.952Z" fill="white"/>
<path d="M160.968 194.438C164.334 194.438 167.062 191.71 167.062 188.345C167.062 184.979 164.334 182.251 160.968 182.251C157.603 182.251 154.875 184.979 154.875 188.345C154.875 191.71 157.603 194.438 160.968 194.438Z" fill="#072AC8"/>
<path opacity="0.2" d="M178.448 110.982C179.496 111.612 180.409 112.441 181.135 113.423C181.862 114.405 182.388 115.521 182.684 116.707C182.979 117.892 183.039 119.124 182.858 120.332C182.677 121.541 182.26 122.702 181.631 123.749C181.002 124.796 180.173 125.709 179.19 126.436C178.208 127.163 177.093 127.689 175.907 127.984C174.722 128.28 173.49 128.339 172.281 128.158C171.073 127.978 169.912 127.561 168.865 126.932C171.021 127.411 173.278 127.108 175.231 126.076C177.184 125.044 178.706 123.35 179.525 121.298C180.343 119.246 180.405 116.97 179.699 114.877C178.992 112.784 177.564 111.01 175.67 109.874C176.65 110.091 177.588 110.465 178.448 110.982Z" fill="#231F20"/>
<path opacity="0.2" d="M201.137 123.722C197.854 138.097 173.042 154.09 165.961 181.054C164.547 179.717 163.234 178.278 162.032 176.748C169.988 151.403 193.256 136.003 196.428 122.114C199.267 109.684 191.292 97.8707 179.849 92.8804C193.701 96.3624 204.352 109.647 201.137 123.722Z" fill="#231F20"/>
<path d="M467.229 429.178H457.015L452.155 389.777L467.232 389.778L467.229 429.178Z" fill="#A0616A"/>
<path d="M472.725 448.575H465.476L464.182 441.731L460.869 448.575H441.644C440.723 448.575 439.825 448.28 439.083 447.734C438.341 447.188 437.792 446.419 437.518 445.539C437.244 444.659 437.258 443.715 437.559 442.844C437.859 441.973 438.43 441.22 439.188 440.697L454.541 430.094V423.176L470.689 424.139L472.725 448.575Z" fill="#2F2E41"/>
<path d="M427.663 429.178H417.449L412.589 389.777L427.666 389.778L427.663 429.178Z" fill="#A0616A"/>
<path d="M433.159 448.575H425.911L424.617 441.731L421.303 448.575H402.078C401.157 448.575 400.259 448.28 399.517 447.734C398.775 447.188 398.227 446.419 397.952 445.539C397.678 444.659 397.692 443.715 397.993 442.844C398.293 441.973 398.864 441.22 399.623 440.697L414.975 430.094V423.176L431.123 424.139L433.159 448.575Z" fill="#2F2E41"/>
<path d="M388.855 325.15C390.81 328.082 412.077 408.69 412.077 408.69L430.933 410.84L428.695 390.559L425.274 354.668L419.976 330.711C419.976 330.711 438.684 288.135 439.867 284.743L440.707 282.31L446.552 335.354C447.247 337.248 447.549 339.263 447.442 341.277C447.266 344.591 450.589 394.439 450.589 394.439L452.187 412.316L468.343 414.56L474.897 383.629C480.371 373.581 477.233 337.876 474.995 334.553C472.757 331.229 473.646 308.084 473.646 308.084C476.505 307.078 493.548 248.959 485.023 249.302C485.571 246.204 486.001 243.438 486.001 243.438L471.203 231.503L434.168 221.876L424.825 217.39C424.825 217.39 408.138 248.247 408.304 249.781C408.534 251.725 408.089 253.688 407.043 255.343L390.194 311.73C390.194 311.73 386.881 322.188 388.855 325.15Z" fill="#2F2E41"/>
<path d="M481.898 123.375L476.006 110.866L455.954 111.637L449.413 124.65C449.413 124.65 430.72 146.977 430.115 154.236C429.354 163.367 435.679 208.116 429.354 205.215C429.354 205.215 414.445 222.716 423.267 222.716C432.09 222.716 471.996 247.767 474.615 250.584C477.233 253.401 488.923 255.228 487.942 249.347C486.962 243.465 481.898 211.657 481.898 211.657L495.608 161.642C499.554 150.844 500.782 138.732 491.862 131.478L481.898 123.375Z" fill="#CCCCCC"/>
<path d="M407.621 86.5577C404.939 85.4931 402.073 84.9671 399.188 85.0099C396.303 85.0526 393.454 85.6633 390.804 86.8071C388.155 87.9508 385.757 89.6052 383.747 91.6757C381.737 93.7463 380.154 96.1925 379.089 98.8747C374.612 110.155 373.87 137.092 382.202 150.593C392.916 131.982 414.592 125.111 419.938 115.09C425.651 104.382 418.901 91.0354 407.621 86.5577Z" fill="#072AC8"/>
<path d="M398.601 111.628C402.559 111.628 405.768 108.42 405.768 104.462C405.768 100.504 402.559 97.2949 398.601 97.2949C394.643 97.2949 391.434 100.504 391.434 104.462C391.434 108.42 394.643 111.628 398.601 111.628Z" fill="white"/>
<path d="M377.038 159.727C379.63 159.727 381.732 157.625 381.732 155.033C381.732 152.44 379.63 150.339 377.038 150.339C374.446 150.339 372.344 152.44 372.344 155.033C372.344 157.625 374.446 159.727 377.038 159.727Z" fill="#072AC8"/>
<path opacity="0.2" d="M405.671 101.063C406.984 102.436 407.698 104.273 407.657 106.172C407.615 108.071 406.822 109.876 405.451 111.191C404.079 112.505 402.242 113.221 400.343 113.182C398.444 113.142 396.638 112.351 395.323 110.981C396.829 111.773 398.567 112.004 400.228 111.632C401.888 111.259 403.362 110.308 404.385 108.948C405.408 107.589 405.914 105.909 405.813 104.211C405.711 102.512 405.008 100.905 403.829 99.6774C404.514 100.037 405.136 100.505 405.671 101.063Z" fill="#231F20"/>
<path opacity="0.2" d="M419.959 115.119C414.613 125.14 392.937 132.012 382.224 150.623C381.442 149.344 380.757 148.009 380.173 146.628C391.211 129.398 411.619 122.654 416.784 112.972C421.407 104.307 417.868 93.9136 410.371 87.891C419.963 93.2795 425.194 105.307 419.959 115.119Z" fill="#231F20"/>
<path d="M374.922 153.416C376.014 153.192 377.141 153.209 378.225 153.466C379.309 153.724 380.323 154.217 381.196 154.909C382.069 155.601 382.779 156.476 383.278 157.473C383.776 158.469 384.049 159.563 384.079 160.677L400.338 166.918L398.955 177.723L376.119 168.587C374.244 168.513 372.462 167.754 371.11 166.454C369.758 165.154 368.929 163.403 368.782 161.533C368.635 159.663 369.178 157.804 370.31 156.308C371.442 154.812 373.083 153.783 374.922 153.416L374.922 153.416Z" fill="#A0616A"/>
<path d="M488.527 131.149C486.815 130.104 484.913 129.407 482.932 129.099C480.95 128.79 478.927 128.876 476.978 129.351C475.03 129.826 473.194 130.681 471.576 131.867C469.959 133.053 468.592 134.546 467.553 136.262L444.215 174.8L391.451 162.293L386.644 175.49L454.214 207.497L488.437 152.989C493.56 145.789 496.069 135.754 488.527 131.149Z" fill="#CCCCCC"/>
<path d="M489.398 83.9199C489.399 87.6342 488.489 91.2922 486.747 94.5725C485.004 97.8529 482.483 100.655 479.405 102.734C476.327 104.813 472.785 106.104 469.092 106.494C465.398 106.885 461.665 106.362 458.22 104.973C454.775 103.584 451.724 101.371 449.334 98.527C446.945 95.6834 445.29 92.2966 444.514 88.664C443.739 85.0315 443.868 81.2641 444.888 77.6928C445.909 74.1214 447.791 70.8552 450.368 68.1808L450.477 68.072C450.659 67.8813 450.84 67.6908 451.031 67.5092C451.032 67.5092 451.033 67.509 451.034 67.5085C451.036 67.5081 451.037 67.5074 451.037 67.5066C451.038 67.5057 451.039 67.5047 451.039 67.5036C451.04 67.5025 451.04 67.5013 451.04 67.5001C451.276 67.2823 451.512 67.0644 451.757 66.8557C455.036 63.981 459.074 62.1122 463.388 61.4731C467.701 60.834 472.107 61.4517 476.079 63.2522C480.051 65.0527 483.419 67.9597 485.781 71.6252C488.144 75.2906 489.399 79.5592 489.398 83.9199V83.9199Z" fill="#2F2E41"/>
<path d="M461.116 108.198C471.625 108.198 480.144 99.679 480.144 89.1702C480.144 78.6613 471.625 70.1422 461.116 70.1422C450.607 70.1422 442.088 78.6613 442.088 89.1702C442.088 99.679 450.607 108.198 461.116 108.198Z" fill="#9E616A"/>
<path d="M481.322 94.5965L478.169 94.0396C476.408 93.7194 474.786 92.869 473.521 91.6021C472.255 90.3352 471.407 88.7122 471.089 86.9501L468.013 92.1058L467.879 92.1504C460.549 94.5839 452.923 93.856 444.57 89.9283C442.182 88.7954 439.865 87.5179 437.632 86.103L437.467 86.0001L437.454 85.8066C437.028 79.6166 438.417 74.4454 441.366 71.2454C442.498 70.0415 443.872 69.0904 445.398 68.4545C446.923 67.8186 448.566 67.5122 450.218 67.5555C450.335 67.5248 450.444 67.4651 450.532 67.382C450.575 67.3508 450.617 67.3199 450.659 67.2906V67.2586L450.878 67.1557C451.347 66.935 451.826 66.7236 452.304 66.5304C456.069 65.0729 460.169 64.7073 464.133 65.4756C468.097 66.2438 471.763 68.1148 474.711 70.8735C480.572 76.4691 483.261 85.8594 481.401 94.2409L481.322 94.5965Z" fill="#2F2E41"/>
<path d="M521.456 110.808C514.981 107.466 523.308 95.3363 521.635 88.2443C519.962 81.1523 507.911 78.8712 507.143 71.6249C506.376 64.3787 504.57 56.9049 499.788 51.4064C496.732 47.8929 492.23 45.2991 487.595 45.7391C486.027 45.888 484.509 46.3732 483.145 47.1616C481.781 47.95 480.603 49.0231 479.691 50.3079C478.779 51.5926 478.155 53.0587 477.861 54.6065C477.566 56.1542 477.609 57.7471 477.986 59.2768C476.667 57.4067 473.251 57.8121 472.406 59.9392C471.654 61.8302 473.314 64.1207 475.268 64.288C477.825 67.4457 480.753 70.7968 484.759 71.4338C485.397 71.5804 486.061 71.58 486.699 71.4327C487.337 71.2854 487.933 70.9951 488.442 70.5837C489.385 69.6786 489.458 67.8693 488.34 67.193C493.374 69.1927 496.326 74.6356 497.073 80.0006C497.82 85.3656 496.786 90.7939 496.105 96.1676C495.424 101.541 495.131 107.194 497.238 112.185C499.727 118.08 505.459 122.306 511.714 123.661C517.969 125.017 524.63 123.692 530.292 120.708C535.954 117.724 540.675 113.168 544.532 108.061C537.888 112.778 528.696 114.546 521.456 110.808Z" fill="#2F2E41"/>
<path d="M480.512 94.0675C480.512 94.0675 474.875 73.0279 450.713 68.1718C450.686 68.1628 450.595 68.1264 450.477 68.0721C450.405 68.0266 450.314 67.9812 450.223 67.9359C450.495 67.7815 450.759 67.6455 451.031 67.5092C451.032 67.5092 451.033 67.509 451.035 67.5085C451.036 67.5081 451.037 67.5074 451.037 67.5066C451.038 67.5057 451.039 67.5047 451.039 67.5036C451.04 67.5025 451.04 67.5013 451.04 67.5001C451.276 67.2823 451.512 67.0644 451.757 66.8557L452.447 66.8829C452.447 66.8829 476.691 63.0435 480.512 94.0675Z" fill="#FD6584"/>
<path opacity="0.2" d="M467.892 161.579L454.246 177.389L431.697 170.73L456.279 182.059L467.892 161.579Z" fill="black"/>
<path d="M549.802 449.766L339.989 450C339.749 449.999 339.52 449.904 339.35 449.734C339.181 449.564 339.086 449.334 339.086 449.094C339.086 448.854 339.181 448.624 339.35 448.454C339.52 448.285 339.749 448.189 339.989 448.188L549.802 447.954C550.043 447.954 550.273 448.05 550.443 448.22C550.613 448.389 550.708 448.62 550.708 448.86C550.708 449.1 550.613 449.331 550.443 449.501C550.273 449.671 550.043 449.766 549.802 449.766Z" fill="#CACACA"/>
<path d="M559.012 308.973C549.187 308.973 538.419 308.602 526.707 307.859C466.131 304.012 387.666 290.638 305.766 270.201C223.866 249.764 148.316 224.705 93.0341 199.641C66.1046 187.432 45.4363 175.874 31.6041 165.289C16.9593 154.084 10.5535 144.316 12.5638 136.26C16.4808 120.563 51.1641 117.129 79.5701 117.013L79.5798 119.295C40.5708 119.456 17.5575 125.677 14.7789 136.812C11.2394 150.995 40.1061 173.138 93.9767 197.562C149.137 222.571 224.548 247.582 306.318 267.987C388.088 288.391 466.409 301.742 526.852 305.581C585.88 309.33 621.767 303.346 625.306 289.162C628.245 277.387 608.873 260.039 570.759 240.315L571.808 238.288C599.502 252.62 631.648 273.176 627.521 289.715C625.511 297.772 615.267 303.384 597.075 306.396C586.704 308.112 573.966 308.973 559.012 308.973Z" fill="#072AC8"/>
</g>
<defs>
<clipPath id="clip0_443_7346">
<rect width="627.881" height="450" fill="white"/>
</clipPath>
</defs>
</svg>
