<svg width="580" height="450" viewBox="0 0 580 450" fill="none" xmlns="http://www.w3.org/2000/svg">
<g clip-path="url(#clip0_443_7250)">
<path d="M329.935 220.036C342.973 220.036 353.543 209.467 353.543 196.428C353.543 183.39 342.973 172.82 329.935 172.82C316.896 172.82 306.326 183.39 306.326 196.428C306.326 209.467 316.896 220.036 329.935 220.036Z" fill="#E6E6E6"/>
<path d="M387.794 226.766L363.123 202.095C365.014 199.154 366.296 195.862 366.892 192.417C367.488 188.971 367.386 185.441 366.592 182.035C365.799 178.629 364.33 175.417 362.273 172.59C360.215 169.762 357.611 167.376 354.615 165.573C348.973 162.203 342.271 161.074 335.836 162.411C329.401 163.747 323.703 167.452 319.87 172.791C316.343 177.736 314.649 183.756 315.079 189.815C315.509 195.873 318.037 201.593 322.228 205.99C326.418 210.388 332.009 213.188 338.041 213.909C344.072 214.63 350.166 213.228 355.275 209.943L379.946 234.614C380.987 235.654 382.398 236.238 383.87 236.237C385.341 236.237 386.752 235.652 387.792 234.612C388.832 233.572 389.417 232.161 389.417 230.689C389.418 229.218 388.834 227.807 387.794 226.766ZM354.354 201.174C351.297 204.231 347.275 206.134 342.972 206.557C338.67 206.981 334.354 205.9 330.759 203.498C327.165 201.096 324.514 197.523 323.259 193.386C322.004 189.249 322.222 184.804 323.877 180.81C325.531 176.816 328.519 173.519 332.332 171.481C336.145 169.443 340.546 168.79 344.786 169.634C349.026 170.477 352.843 172.765 355.585 176.107C358.328 179.448 359.827 183.638 359.827 187.961C359.83 190.415 359.348 192.846 358.409 195.114C357.47 197.381 356.092 199.441 354.354 201.174Z" fill="#3F3D56"/>
<path d="M566.631 263.157C629.725 332.932 446.828 433.487 299.043 433.487C151.258 433.487 49.0138 355.574 31.4545 263.157C-11.1208 39.0772 394.206 -103.347 299.043 92.8278C160.331 378.775 516.944 208.208 566.631 263.157Z" fill="#E6E6E6"/>
<path d="M538.322 279.671C601.416 349.445 418.519 450 270.734 450C122.949 450 20.7049 372.088 3.14562 279.671C-39.4297 55.5907 365.897 -86.8333 270.734 109.341C132.022 395.288 488.635 224.722 538.322 279.671Z" fill="#3F3D56"/>
<path d="M88.2253 116.081C43.9531 114.132 9.62643 104.582 10.0774 94.3396C10.3478 88.199 22.8772 83.2613 44.453 80.7929C44.5302 80.7835 44.6085 80.7895 44.6834 80.8106C44.7583 80.8316 44.8282 80.8672 44.8893 80.9154C44.9503 80.9636 45.0013 81.0234 45.0391 81.0914C45.077 81.1593 45.101 81.2341 45.1098 81.3114C45.1187 81.3886 45.1122 81.4669 45.0906 81.5416C45.0691 81.6164 45.033 81.6861 44.9844 81.7469C44.9358 81.8076 44.8757 81.8581 44.8075 81.8955C44.7393 81.9329 44.6643 81.9564 44.587 81.9648C24.2627 84.2902 11.4909 89.0518 11.2558 94.3914C10.848 103.653 46.1194 113.046 88.2772 114.903C130.435 116.759 166.396 110.502 166.803 101.24C167.039 95.8782 154.656 89.996 134.485 85.8896C134.409 85.8743 134.337 85.8442 134.273 85.8009C134.208 85.7577 134.153 85.7021 134.11 85.6375C134.067 85.5728 134.037 85.5003 134.023 85.4242C134.008 85.348 134.008 85.2696 134.024 85.1936C134.039 85.1176 134.069 85.0453 134.113 84.981C134.156 84.9167 134.212 84.8617 134.277 84.8189C134.342 84.7762 134.414 84.7467 134.49 84.7321C134.567 84.7174 134.645 84.718 134.721 84.7337C156.13 89.0924 168.253 95.1277 167.982 101.292C167.531 111.534 132.498 118.03 88.2253 116.081Z" fill="#072AC8"/>
<path d="M48.9053 117.796C52.6089 124.832 58.0952 130.772 64.8154 135.021C71.5355 139.271 79.2537 141.681 87.1978 142.01C95.1419 142.34 103.033 140.578 110.082 136.9C117.132 133.222 123.091 127.757 127.365 121.053C101.172 121.406 74.9792 120.319 48.9053 117.796Z" fill="#072AC8"/>
<path d="M132.263 108.647C134.492 101.961 135.134 94.8487 134.139 87.8718C133.143 80.895 130.538 74.2456 126.528 68.4498C122.519 62.6541 117.215 57.871 111.038 54.4793C104.86 51.0876 97.9779 49.1803 90.9357 48.9084C83.8935 48.6364 76.8847 50.0073 70.4639 52.9125C64.0431 55.8177 58.3866 60.1775 53.9421 65.6468C49.4976 71.1161 46.3871 77.5447 44.8567 84.424C43.3264 91.3033 43.4182 98.4444 45.1249 105.282C73.9031 110.167 103.193 111.299 132.263 108.647Z" fill="#072AC8"/>
<path d="M99.5723 78.2034C102.504 78.2034 104.88 75.827 104.88 72.8955C104.88 69.9641 102.504 67.5876 99.5723 67.5876C96.6408 67.5876 94.2644 69.9641 94.2644 72.8955C94.2644 75.827 96.6408 78.2034 99.5723 78.2034Z" fill="white"/>
<path d="M72.2542 98.8397C77.14 98.8397 81.1007 94.879 81.1007 89.9932C81.1007 85.1074 77.14 81.1467 72.2542 81.1467C67.3684 81.1467 63.4077 85.1074 63.4077 89.9932C63.4077 94.879 67.3684 98.8397 72.2542 98.8397Z" fill="white"/>
<path d="M205.772 90.174C209.029 90.174 211.67 87.5336 211.67 84.2765C211.67 81.0194 209.029 78.379 205.772 78.379C202.515 78.379 199.875 81.0194 199.875 84.2765C199.875 87.5336 202.515 90.174 205.772 90.174Z" fill="#072AC8"/>
<path d="M72.4852 270.643C74.4395 270.643 76.0238 269.058 76.0238 267.104C76.0238 265.15 74.4395 263.565 72.4852 263.565C70.5308 263.565 68.9465 265.15 68.9465 267.104C68.9465 269.058 70.5308 270.643 72.4852 270.643Z" fill="#E6E6E6"/>
<path d="M320.187 392.135C322.141 392.135 323.726 390.55 323.726 388.596C323.726 386.642 322.141 385.057 320.187 385.057C318.233 385.057 316.648 386.642 316.648 388.596C316.648 390.55 318.233 392.135 320.187 392.135Z" fill="#E6E6E6"/>
<path d="M89.5884 202.23C90.5656 202.23 91.3578 201.438 91.3578 200.46C91.3578 199.483 90.5656 198.691 89.5884 198.691C88.6112 198.691 87.8191 199.483 87.8191 200.46C87.8191 201.438 88.6112 202.23 89.5884 202.23Z" fill="#E6E6E6"/>
<path d="M235.85 334.337C236.828 334.337 237.62 333.545 237.62 332.568C237.62 331.591 236.828 330.799 235.85 330.799C234.873 330.799 234.081 331.591 234.081 332.568C234.081 333.545 234.873 334.337 235.85 334.337Z" fill="#E6E6E6"/>
<path d="M501.835 317.234C502.812 317.234 503.604 316.442 503.604 315.465C503.604 314.488 502.812 313.696 501.835 313.696C500.858 313.696 500.066 314.488 500.066 315.465C500.066 316.442 500.858 317.234 501.835 317.234Z" fill="#E6E6E6"/>
<path d="M418.678 369.723C419.655 369.723 420.447 368.931 420.447 367.954C420.447 366.977 419.655 366.185 418.678 366.185C417.701 366.185 416.908 366.977 416.908 367.954C416.908 368.931 417.701 369.723 418.678 369.723Z" fill="#E6E6E6"/>
<path d="M331.982 306.029C332.959 306.029 333.752 305.236 333.752 304.259C333.752 303.282 332.959 302.49 331.982 302.49C331.005 302.49 330.213 303.282 330.213 304.259C330.213 305.236 331.005 306.029 331.982 306.029Z" fill="#E6E6E6"/>
<path d="M219.927 131.458C220.904 131.458 221.696 130.666 221.696 129.689C221.696 128.711 220.904 127.919 219.927 127.919C218.949 127.919 218.157 128.711 218.157 129.689C218.157 130.666 218.949 131.458 219.927 131.458Z" fill="#E6E6E6"/>
<path d="M234.081 44.1724C235.058 44.1724 235.85 43.3803 235.85 42.4031C235.85 41.4259 235.058 40.6338 234.081 40.6338C233.104 40.6338 232.312 41.4259 232.312 42.4031C232.312 43.3803 233.104 44.1724 234.081 44.1724Z" fill="#E6E6E6"/>
<path d="M225.824 411.597C226.801 411.597 227.594 410.805 227.594 409.827C227.594 408.85 226.801 408.058 225.824 408.058C224.847 408.058 224.055 408.85 224.055 409.827C224.055 410.805 224.847 411.597 225.824 411.597Z" fill="#E6E6E6"/>
<path d="M138.539 374.441C139.516 374.441 140.308 373.649 140.308 372.672C140.308 371.695 139.516 370.903 138.539 370.903C137.562 370.903 136.77 371.695 136.77 372.672C136.77 373.649 137.562 374.441 138.539 374.441Z" fill="#E6E6E6"/>
<path d="M415.139 310.747C416.116 310.747 416.909 309.955 416.909 308.977C416.909 308 416.116 307.208 415.139 307.208C414.162 307.208 413.37 308 413.37 308.977C413.37 309.955 414.162 310.747 415.139 310.747Z" fill="#E6E6E6"/>
<path d="M87.5059 137.887C90.4374 137.887 92.8138 135.51 92.8138 132.579C92.8138 129.647 90.4374 127.271 87.5059 127.271C84.5744 127.271 82.198 129.647 82.198 132.579C82.198 135.51 84.5744 137.887 87.5059 137.887Z" fill="white"/>
<path d="M207.542 214.025C207.542 229.878 183.031 266.819 175.869 277.276C175.652 277.592 175.362 277.85 175.024 278.029C174.685 278.208 174.308 278.301 173.925 278.301C173.542 278.301 173.165 278.208 172.826 278.029C172.488 277.85 172.198 277.592 171.982 277.276C164.819 266.819 140.308 229.878 140.308 214.025C140.308 209.611 141.178 205.239 142.867 201.161C144.557 197.082 147.033 193.376 150.154 190.255C153.276 187.133 156.982 184.657 161.06 182.967C165.139 181.278 169.51 180.408 173.925 180.408C178.34 180.408 182.711 181.278 186.79 182.967C190.868 184.657 194.574 187.133 197.696 190.255C200.817 193.376 203.293 197.082 204.983 201.161C206.672 205.239 207.542 209.611 207.542 214.025Z" fill="white"/>
<path d="M173.925 228.769C183.371 228.769 191.028 221.112 191.028 211.666C191.028 202.22 183.371 194.563 173.925 194.563C164.479 194.563 156.822 202.22 156.822 211.666C156.822 221.112 164.479 228.769 173.925 228.769Z" fill="#072AC8"/>
<path d="M173.63 296.592C184.542 296.592 193.387 294.876 193.387 292.759C193.387 290.642 184.542 288.925 173.63 288.925C162.718 288.925 153.873 290.642 153.873 292.759C153.873 294.876 162.718 296.592 173.63 296.592Z" fill="white"/>
<path d="M481.752 187.498C481.603 187.788 481.477 188.09 481.374 188.4L453.194 196.23L448.115 191.26L439.613 197.944L447.749 207.616C448.406 208.397 449.299 208.944 450.293 209.175C451.288 209.405 452.331 209.307 453.265 208.895L483.706 195.457C484.739 196.174 485.965 196.559 487.223 196.562C488.48 196.565 489.708 196.185 490.744 195.473C491.78 194.76 492.574 193.749 493.022 192.575C493.469 191.4 493.548 190.116 493.249 188.896C492.949 187.675 492.285 186.574 491.344 185.74C490.403 184.906 489.231 184.377 487.983 184.226C486.735 184.074 485.471 184.306 484.358 184.89C483.245 185.475 482.336 186.385 481.753 187.498H481.752Z" fill="#FFB8B8"/>
<path d="M452.201 196.689L441.623 204.922C441.322 205.156 440.974 205.323 440.603 205.41C440.232 205.498 439.846 205.505 439.472 205.43C439.098 205.355 438.745 205.2 438.436 204.977C438.127 204.753 437.87 204.465 437.683 204.133L431.109 192.499C429.919 190.952 429.39 188.997 429.64 187.061C429.889 185.126 430.896 183.368 432.44 182.174C433.983 180.98 435.937 180.447 437.874 180.691C439.81 180.936 441.57 181.938 442.768 183.479L452.404 192.675C452.679 192.939 452.895 193.258 453.036 193.613C453.177 193.967 453.24 194.348 453.221 194.728C453.202 195.109 453.101 195.482 452.925 195.82C452.749 196.158 452.502 196.455 452.201 196.689V196.689Z" fill="#072AC8"/>
<path d="M484.455 183.604L495.181 188.43C495.631 188.632 495.981 189.004 496.156 189.465C496.331 189.926 496.315 190.437 496.113 190.886L494.843 193.709C494.992 193.776 495.109 193.901 495.167 194.054C495.225 194.207 495.22 194.377 495.154 194.527L494.646 195.656C494.578 195.806 494.454 195.922 494.3 195.98C494.147 196.039 493.977 196.034 493.827 195.967L493.319 197.096C493.468 197.164 493.585 197.288 493.643 197.441C493.701 197.595 493.696 197.765 493.63 197.915L493.122 199.044C493.054 199.193 492.93 199.31 492.776 199.368C492.623 199.426 492.453 199.421 492.303 199.354L485.445 214.597C485.243 215.047 484.871 215.397 484.41 215.572C483.95 215.747 483.439 215.731 482.989 215.529L472.263 210.703C471.813 210.501 471.463 210.129 471.288 209.668C471.114 209.208 471.129 208.697 471.331 208.247L481.999 184.536C482.201 184.087 482.573 183.736 483.034 183.561C483.494 183.387 484.005 183.402 484.455 183.604Z" fill="#3F3D56"/>
<path d="M474.21 209.201L482.815 213.077C483.247 213.269 483.737 213.284 484.178 213.117C484.62 212.95 484.978 212.615 485.174 212.185L489.148 203.345L490.529 200.28L494.126 192.282C494.318 191.852 494.332 191.363 494.165 190.922C493.998 190.481 493.663 190.124 493.234 189.93L490.529 188.71L484.623 186.054C484.192 185.862 483.702 185.848 483.261 186.016C482.82 186.185 482.464 186.521 482.271 186.952L478.791 194.684L474.829 203.487L473.319 206.849C473.126 207.279 473.112 207.768 473.279 208.209C473.446 208.65 473.781 209.007 474.21 209.201Z" fill="#F2F2F2"/>
<path d="M456.23 318.735L463.46 318.734L466.9 290.846L456.229 290.846L456.23 318.735Z" fill="#FFB8B8"/>
<path d="M454.386 316.374L468.625 316.374H468.625C469.817 316.374 470.997 316.608 472.098 317.064C473.199 317.52 474.199 318.189 475.042 319.032C475.885 319.874 476.553 320.874 477.009 321.975C477.465 323.076 477.7 324.256 477.7 325.448V325.743L454.386 325.744L454.386 316.374Z" fill="#2F2E41"/>
<path d="M475.102 316.966L482.333 316.965L485.773 289.076L475.101 289.077L475.102 316.966Z" fill="#FFB8B8"/>
<path d="M473.258 314.605L487.497 314.604H487.498C488.69 314.604 489.87 314.839 490.97 315.295C492.071 315.751 493.072 316.42 493.914 317.262C494.757 318.105 495.426 319.105 495.882 320.206C496.338 321.307 496.572 322.487 496.572 323.679V323.974L473.258 323.974L473.258 314.605Z" fill="#2F2E41"/>
<path d="M423.797 253.292C425.338 257.858 428.26 261.833 432.159 264.666C436.058 267.498 440.741 269.049 445.56 269.103L445.925 269.109C449.658 269.215 454.04 268.012 458.34 266.284C466.832 262.87 474.989 257.402 477.153 255.899L473.485 291.161L471.999 305.457C471.961 305.826 472.002 306.2 472.117 306.553C472.233 306.907 472.421 307.232 472.67 307.508C472.919 307.784 473.223 308.005 473.562 308.157C473.902 308.308 474.269 308.387 474.641 308.388H483.8C484.387 308.388 484.958 308.194 485.423 307.835C485.889 307.477 486.222 306.974 486.371 306.406L501.493 248.815C501.947 247.092 501.983 245.285 501.599 243.544C501.216 241.803 500.423 240.179 499.287 238.805C498.151 237.432 496.704 236.349 495.067 235.646C493.429 234.942 491.647 234.639 489.869 234.761L458.458 236.914L460.652 228.138L432.614 226.275L432.532 226.334C431.859 226.823 431.205 227.336 430.58 227.873C429.017 229.195 427.631 230.713 426.457 232.39C424.357 235.4 423.018 238.874 422.555 242.514C422.092 246.154 422.518 249.852 423.797 253.292Z" fill="#2F2E41"/>
<path d="M423.797 253.292C425.338 257.858 428.26 261.833 432.159 264.666C436.058 267.498 440.741 269.049 445.56 269.103C450.168 266.771 454.615 264.133 458.871 261.206L458.34 266.284L453.716 310.764C453.679 311.134 453.719 311.508 453.835 311.861C453.95 312.215 454.138 312.54 454.387 312.816C454.636 313.092 454.94 313.313 455.28 313.464C455.619 313.616 455.987 313.695 456.358 313.696H465.517C466.105 313.696 466.675 313.502 467.141 313.143C467.606 312.785 467.939 312.282 468.089 311.714L473.485 291.161L483.21 254.123C483.664 252.4 483.7 250.593 483.317 248.852C482.933 247.111 482.141 245.487 481.005 244.113C479.868 242.74 478.422 241.657 476.784 240.953C475.146 240.25 473.364 239.947 471.586 240.069L440.175 242.222L442.369 233.446L426.457 232.39C424.357 235.4 423.018 238.874 422.555 242.514C422.092 246.154 422.518 249.852 423.797 253.292Z" fill="#2F2E41"/>
<path d="M430.539 229.907L430.329 229.882L425.436 205.828C425.394 205.62 421.395 184.872 433.656 174.026L433.869 172.541C433.924 172.161 434.06 171.798 434.269 171.476C434.478 171.153 434.754 170.88 435.078 170.675C435.403 170.47 435.768 170.338 436.148 170.288C436.529 170.237 436.916 170.27 437.282 170.384L448.833 173.967C449.486 174.168 450.037 174.615 450.369 175.213C450.701 175.811 450.788 176.515 450.613 177.176L449.49 181.447C451.047 183.275 469.374 205.34 462.99 222.339L460.131 233.516L430.539 229.907Z" fill="#072AC8"/>
<path d="M478.499 211.135C478.223 211.308 477.961 211.504 477.716 211.719L449.467 204.135L447.621 197.274L436.901 198.708L438.99 211.172C439.159 212.179 439.65 213.104 440.389 213.808C441.128 214.513 442.076 214.958 443.09 215.078L476.136 218.981C476.661 220.124 477.521 221.079 478.602 221.721C479.683 222.362 480.934 222.659 482.188 222.573C483.443 222.486 484.641 222.019 485.623 221.235C486.606 220.451 487.326 219.386 487.689 218.182C488.051 216.978 488.039 215.693 487.653 214.496C487.267 213.3 486.526 212.249 485.529 211.484C484.531 210.719 483.324 210.276 482.069 210.213C480.813 210.151 479.568 210.472 478.499 211.135H478.499Z" fill="#FFB8B8"/>
<path d="M448.379 204.026L435.085 205.738C434.707 205.787 434.322 205.754 433.958 205.64C433.594 205.527 433.258 205.337 432.974 205.082C432.69 204.828 432.465 204.515 432.312 204.165C432.16 203.816 432.085 203.437 432.092 203.056L432.346 189.695C432.107 187.758 432.647 185.806 433.846 184.266C435.044 182.727 436.805 181.725 438.741 181.482C440.677 181.238 442.631 181.772 444.174 182.967C445.717 184.161 446.723 185.919 446.972 187.855L450.594 200.673C450.698 201.04 450.721 201.425 450.662 201.802C450.604 202.178 450.464 202.538 450.254 202.856C450.044 203.175 449.768 203.444 449.444 203.646C449.12 203.847 448.757 203.977 448.379 204.026Z" fill="#072AC8"/>
<path d="M444.637 167.119C452.637 167.119 459.122 160.634 459.122 152.634C459.122 144.634 452.637 138.148 444.637 138.148C436.637 138.148 430.152 144.634 430.152 152.634C430.152 160.634 436.637 167.119 444.637 167.119Z" fill="#FFB8B8"/>
<path d="M443.875 153.843L442.061 150.541C438.626 164.537 444.694 176.121 444.694 176.121L421.143 165.151L421.368 161.258L419.037 163.903L415.689 162.058L415.246 159.533L412.719 160.159L421.945 143.417C430.899 127.486 443.917 133.568 443.917 133.568C464.627 132.584 462.097 153.016 462.097 153.016L443.875 153.843Z" fill="#2F2E41"/>
<path d="M278.983 261.789C282.323 259.648 278.261 247.354 269.911 234.329C261.561 221.304 252.085 212.481 248.745 214.622C245.406 216.763 249.467 229.057 257.817 242.082C266.167 255.107 275.643 263.93 278.983 261.789Z" fill="#3F3D56"/>
</g>
<defs>
<clipPath id="clip0_443_7250">
<rect width="579.438" height="450" fill="white"/>
</clipPath>
</defs>
</svg>
