<svg width="531" height="450" viewBox="0 0 531 450" fill="none" xmlns="http://www.w3.org/2000/svg">
<g clip-path="url(#clip0_443_7299)">
<path d="M511.952 188.392C485.422 222.32 435.36 230.089 393.938 218.272C380.385 214.312 367.309 208.868 354.949 202.041C347.77 198.143 340.762 193.866 333.897 189.309C332.208 188.192 330.52 187.059 328.848 185.902C327.708 185.123 326.573 184.335 325.441 183.538C311.265 173.564 297.645 162.623 284.254 151.745C250.824 124.59 216.479 96.5998 175.406 83.6436C166.944 80.9756 155.997 79.7275 150.764 86.8955C146.224 93.1189 148.995 101.93 152.837 108.606C167.087 133.333 192.953 148.946 218.843 160.952C244.732 172.957 272.157 182.684 294.662 200.238C317.168 217.792 334.35 245.691 329.747 273.853C325.779 298.122 305.964 317.84 282.925 326.434C259.887 335.022 234.192 333.825 210.244 328.249C186.295 322.667 163.56 312.928 140.447 304.535C126.512 299.468 108.295 295.964 99.0481 307.558C91.239 317.354 95.7275 332.806 105.237 340.959C114.747 349.111 127.617 351.842 139.898 354.293C178.028 361.907 216.158 369.52 254.288 377.131C265.985 379.461 277.956 381.9 288.147 388.106C298.338 394.306 306.559 405.139 306.268 417.064C305.975 428.818 297.37 439.204 286.824 444.408C276.284 449.606 264.112 450.408 252.37 449.847C208.366 447.74 82.2103 377.829 51.9524 368.892C32.5095 363.155 11.2518 354.728 3.05305 336.19C-7.15509 313.111 9.64294 285.189 32.5724 274.649C55.4963 264.103 82.0728 266.439 107.058 269.989C132.043 273.538 157.852 278.056 182.173 271.311C206.494 264.567 228.776 242.582 226.378 217.46C224.288 195.601 204.599 179.129 183.879 171.87C167.659 166.184 150.404 164.639 133.365 162.079C128.636 161.375 123.924 160.585 119.258 159.612C107.309 157.108 95.652 153.367 84.4775 148.448C72.7512 143.297 61.6111 136.903 51.2482 129.377C42.9828 123.383 35.2586 116.676 28.1642 109.333C27.082 108.211 26.0113 107.064 24.9521 105.892C23.9446 104.77 22.9483 103.625 21.9752 102.457C9.31087 87.3249 -0.044359 68.6893 2.76123 49.4869C5.56067 30.336 20.4866 14.3912 38.2577 6.73082C48.5287 2.30521 59.6071 0.324278 70.8228 0.0380159C79.0237 -0.125885 87.2223 0.46439 95.3152 1.80139C132.764 7.78999 167.081 25.9848 199.492 45.6853C231.896 65.3859 263.477 87.0101 298.704 101.054C333.932 115.104 374.031 121.052 409.768 108.348C445.505 95.6495 474.864 61.0003 473.118 23.1164C496.82 43.5269 516.962 69.1817 525.882 99.159C534.802 129.136 531.218 163.751 511.952 188.392Z" fill="#3F3D56"/>
<path d="M341.173 149.241C343.474 149.241 345.34 147.375 345.34 145.074C345.34 142.773 343.474 140.907 341.173 140.907C338.872 140.907 337.006 142.773 337.006 145.074C337.006 147.375 338.872 149.241 341.173 149.241Z" fill="#072AC8"/>
<path d="M488.312 96.5537C491.869 96.5537 494.754 93.6695 494.754 90.1116C494.754 86.5538 491.869 83.6696 488.312 83.6696C484.754 83.6696 481.87 86.5538 481.87 90.1116C481.87 93.6695 484.754 96.5537 488.312 96.5537Z" fill="#FF6584"/>
<path d="M65.7892 295.165C67.1038 295.165 68.1694 294.1 68.1694 292.785C68.1694 291.47 67.1038 290.405 65.7892 290.405C64.4746 290.405 63.4089 291.47 63.4089 292.785C63.4089 294.1 64.4746 295.165 65.7892 295.165Z" fill="#FF6584"/>
<path d="M134.11 155.953C134.111 158.018 133.861 160.075 133.365 162.079C128.636 161.375 123.924 160.585 119.258 159.612C107.309 157.108 95.652 153.366 84.4775 148.447C86.2745 142.646 90.0923 137.68 95.2378 134.453C100.383 131.226 106.515 129.95 112.521 130.859C118.527 131.767 124.007 134.798 127.969 139.403C131.93 144.007 134.109 149.879 134.11 155.953Z" fill="#FF6584"/>
<path d="M447.09 134.34C448.435 134.34 449.524 133.25 449.524 131.906C449.524 130.561 448.435 129.472 447.09 129.472C445.746 129.472 444.656 130.561 444.656 131.906C444.656 133.25 445.746 134.34 447.09 134.34Z" fill="#F0F0F0"/>
<path d="M224.378 402.281C225.723 402.281 226.813 401.191 226.813 399.847C226.813 398.502 225.723 397.413 224.378 397.413C223.034 397.413 221.944 398.502 221.944 399.847C221.944 401.191 223.034 402.281 224.378 402.281Z" fill="#F0F0F0"/>
<path d="M259.302 436.06C260.646 436.06 261.736 434.97 261.736 433.626C261.736 432.281 260.646 431.192 259.302 431.192C257.958 431.192 256.868 432.281 256.868 433.626C256.868 434.97 257.958 436.06 259.302 436.06Z" fill="#F0F0F0"/>
<path d="M43.4607 339.876C44.8052 339.876 45.8951 338.786 45.8951 337.442C45.8951 336.097 44.8052 335.008 43.4607 335.008C42.1163 335.008 41.0264 336.097 41.0264 337.442C41.0264 338.786 42.1163 339.876 43.4607 339.876Z" fill="#F0F0F0"/>
<path d="M163.118 294.647C164.463 294.647 165.553 293.557 165.553 292.213C165.553 290.868 164.463 289.778 163.118 289.778C161.774 289.778 160.684 290.868 160.684 292.213C160.684 293.557 161.774 294.647 163.118 294.647Z" fill="#F0F0F0"/>
<path d="M151.095 53.0419C152.44 53.0419 153.53 51.952 153.53 50.6075C153.53 49.2631 152.44 48.1732 151.095 48.1732C149.751 48.1732 148.661 49.2631 148.661 50.6075C148.661 51.952 149.751 53.0419 151.095 53.0419Z" fill="#F0F0F0"/>
<path d="M298.234 243.692C299.578 243.692 300.668 242.602 300.668 241.258C300.668 239.913 299.578 238.823 298.234 238.823C296.889 238.823 295.799 239.913 295.799 241.258C295.799 242.602 296.889 243.692 298.234 243.692Z" fill="#F0F0F0"/>
<path d="M316.554 286.059C317.899 286.059 318.989 284.969 318.989 283.625C318.989 282.28 317.899 281.19 316.554 281.19C315.21 281.19 314.12 282.28 314.12 283.625C314.12 284.969 315.21 286.059 316.554 286.059Z" fill="#F0F0F0"/>
<path d="M97.1245 58.3781C97.1424 70.6694 94.2381 82.7889 88.6512 93.7372C87.9126 95.1799 87.1302 96.5979 86.3038 97.991C78.1224 111.807 65.8816 122.767 51.2482 129.377C42.9828 123.382 35.2586 116.676 28.1641 109.333C27.082 108.211 26.0113 107.064 24.9521 105.892C23.9446 104.77 22.9483 103.625 21.9751 102.457C9.31084 87.3249 -0.044384 68.6892 2.76121 49.4868C5.56065 30.3359 20.4865 14.3911 38.2577 6.73073C48.5287 2.30512 59.6071 0.324226 70.8227 0.0379639C79.5923 7.78252 86.5057 17.4021 91.05 28.1832C91.6226 29.5401 92.1493 30.9142 92.6474 32.3054C95.6187 40.6766 97.133 49.4952 97.1245 58.3781Z" fill="#072AC8"/>
<path d="M132.621 62.3857C132.621 74.3114 120.976 85.3726 99.8269 93.5425C95.5958 95.1799 91.0671 96.6627 86.3038 97.991C68.4753 102.96 47.2576 105.714 24.9521 105.892C23.9445 104.77 22.9482 103.625 21.9751 102.457C22.2155 102.462 22.4559 102.462 22.6963 102.462C46.9199 102.462 69.901 99.3937 88.6512 93.7371C92.1148 92.6894 95.4356 91.5558 98.5901 90.3363C118.033 82.8305 129.186 72.6396 129.186 62.3857C129.186 52.1318 118.033 41.9466 98.5901 34.4351C96.6665 33.6908 94.6856 32.9809 92.6474 32.3053C92.1492 30.9141 91.6226 29.54 91.05 28.1832C94.0958 29.1336 97.0214 30.1488 99.8269 31.229C120.976 39.3989 132.621 50.4658 132.621 62.3857Z" fill="#E4E4E4"/>
<path d="M26.2849 19.8355C27.6294 19.8355 28.7193 18.7456 28.7193 17.4012C28.7193 16.0567 27.6294 14.9668 26.2849 14.9668C24.9405 14.9668 23.8506 16.0567 23.8506 17.4012C23.8506 18.7456 24.9405 19.8355 26.2849 19.8355Z" fill="#F0F0F0"/>
<path d="M77.2395 35.2936C78.584 35.2936 79.6739 34.2037 79.6739 32.8593C79.6739 31.5148 78.584 30.4249 77.2395 30.4249C75.8951 30.4249 74.8052 31.5148 74.8052 32.8593C74.8052 34.2037 75.8951 35.2936 77.2395 35.2936Z" fill="#F0F0F0"/>
<path d="M50.9034 81.1507C63.9776 81.1507 74.5764 70.552 74.5764 57.4778C74.5764 44.4036 63.9776 33.8048 50.9034 33.8048C37.8292 33.8048 27.2305 44.4036 27.2305 57.4778C27.2305 70.552 37.8292 81.1507 50.9034 81.1507Z" fill="#F0F0F0"/>
<path opacity="0.3" d="M488.084 182.77C482.77 184.339 471.057 185.495 458.175 186.205C445.299 186.91 431.175 187.219 417.228 187.517C392.816 188.043 368.405 188.572 343.997 189.102C340.641 189.177 337.275 189.246 333.897 189.309C332.208 188.192 330.519 187.058 328.848 185.902C331.842 185.919 334.836 185.902 337.808 185.845C350.5 185.593 361.247 184.602 373.487 184.133C392.323 183.406 412.659 183.978 432.291 184.27C451.923 184.568 474.291 184.459 488.084 182.77Z" fill="#F0F0F0"/>
<path opacity="0.3" d="M113.408 363.247L35.5896 298.42L111.188 365.844C111.335 366.091 111.538 366.299 111.781 366.451C112.024 366.604 112.299 366.696 112.585 366.721C112.871 366.745 113.158 366.701 113.424 366.592C113.689 366.484 113.925 366.313 114.111 366.095C114.297 365.877 114.429 365.618 114.495 365.339C114.561 365.06 114.56 364.769 114.491 364.491C114.422 364.212 114.288 363.954 114.1 363.738C113.911 363.522 113.674 363.354 113.408 363.247H113.408Z" fill="#F0F0F0"/>
<path d="M54.3386 117.737C55.6831 117.737 56.773 116.647 56.773 115.303C56.773 113.958 55.6831 112.868 54.3386 112.868C52.9942 112.868 51.9043 113.958 51.9043 115.303C51.9043 116.647 52.9942 117.737 54.3386 117.737Z" fill="#F0F0F0"/>
<path d="M258.79 397.374L268.859 397.373L273.65 358.535L258.789 358.535L258.79 397.374Z" fill="#FFB6B6"/>
<path d="M256.222 394.086L259.056 394.086L270.121 389.586L276.052 394.085H276.053C279.404 394.085 282.618 395.417 284.988 397.787C287.358 400.157 288.689 403.371 288.69 406.722V407.133L256.223 407.134L256.222 394.086Z" fill="#2F2E41"/>
<path d="M183.384 397.374L173.315 397.373L168.525 358.535L183.386 358.535L183.384 397.374Z" fill="#FFB6B6"/>
<path d="M185.952 407.134L153.485 407.133V406.722C153.485 403.371 154.817 400.157 157.187 397.787C159.557 395.417 162.771 394.085 166.122 394.085H166.123L172.053 389.586L183.119 394.086L185.953 394.086L185.952 407.134Z" fill="#2F2E41"/>
<path d="M219.463 99.7267L209.267 107.49L182.184 114.663C182.184 114.663 191.888 182.77 187.308 187.35C182.728 191.931 186.859 192.054 185.938 198.004C185.018 203.954 181.351 219.663 181.351 219.663H262.184C262.184 219.663 262.835 209.9 258.851 207.785C254.866 205.671 262.524 195.803 259.267 194.153C256.011 192.503 260.591 178.19 260.591 178.19L270.517 131.329L244.116 110.673L240.101 100.999L219.463 99.7267Z" fill="#072AC8"/>
<path d="M232.184 160.587C234.133 160.587 235.712 159.008 235.712 157.06C235.712 155.111 234.133 153.532 232.184 153.532C230.236 153.532 228.657 155.111 228.657 157.06C228.657 159.008 230.236 160.587 232.184 160.587Z" fill="#F2F2F2"/>
<path d="M181.351 219.663L178.017 305.496C178.017 305.496 163.625 368.891 166.125 370.558C168.625 372.225 169.684 382.163 169.684 382.163L183.851 383.829C183.851 383.829 183.851 377.163 187.184 374.663C190.517 372.163 221.351 254.663 221.351 254.663L251.431 368.268C251.431 368.268 252.184 374.663 254.684 374.663C257.184 374.663 258.017 383.829 258.017 383.829H272.184V374.663C272.184 374.663 278.549 372.645 276.049 365.978C273.549 359.311 262.184 219.663 262.184 219.663H181.351Z" fill="#2F2E41"/>
<path d="M230.05 94.6118C239.485 94.6118 247.133 86.9633 247.133 77.5285C247.133 68.0936 239.485 60.4451 230.05 60.4451C220.615 60.4451 212.966 68.0936 212.966 77.5285C212.966 86.9633 220.615 94.6118 230.05 94.6118Z" fill="#FFB6B6"/>
<path opacity="0.1" d="M259.268 154.246L262.601 156.746L264.267 145.079L259.268 154.246Z" fill="black"/>
<path d="M183.782 114.596C183.782 114.596 179.615 113.763 177.115 121.263C174.615 128.763 165.448 157.096 165.448 162.096C165.448 167.096 222.535 189.158 222.535 189.158L216.595 168.32L190.448 154.596L183.782 114.596Z" fill="#072AC8"/>
<path d="M225.183 186.068C230.558 186.068 234.916 181.711 234.916 176.335C234.916 170.96 230.558 166.603 225.183 166.603C219.807 166.603 215.45 170.96 215.45 176.335C215.45 181.711 219.807 186.068 225.183 186.068Z" fill="#FFB6B6"/>
<path opacity="0.1" d="M189.686 144.274L190.448 154.596L214.626 167.287L193.121 152.862L189.686 144.274Z" fill="black"/>
<path d="M247.811 145.746H247.497V137.153C247.497 136.5 247.368 135.853 247.118 135.25C246.869 134.647 246.502 134.098 246.04 133.637C245.579 133.175 245.03 132.809 244.427 132.559C243.824 132.309 243.177 132.18 242.524 132.18H224.319C223.666 132.18 223.02 132.309 222.416 132.559C221.813 132.809 221.265 133.175 220.803 133.637C220.341 134.098 219.975 134.647 219.725 135.25C219.475 135.853 219.346 136.5 219.346 137.153V184.293C219.346 184.946 219.475 185.593 219.725 186.196C219.975 186.799 220.341 187.348 220.803 187.809C221.265 188.271 221.813 188.638 222.416 188.887C223.02 189.137 223.666 189.266 224.319 189.266H242.524C243.177 189.266 243.824 189.137 244.427 188.887C245.03 188.638 245.579 188.271 246.04 187.809C246.502 187.348 246.869 186.799 247.118 186.196C247.368 185.593 247.497 184.946 247.497 184.293V151.862H247.811V145.746Z" fill="#F0F0F0"/>
<path d="M270.517 131.329C270.517 131.329 273.017 132.996 274.684 140.496C276.351 147.996 287.184 176.329 283.017 182.996C278.851 189.663 277.621 196.778 263.454 186.778L243.851 168.829L258.017 155.496L263.851 159.663L270.517 131.329Z" fill="#072AC8"/>
<path d="M233.644 153.19C235.945 153.19 237.811 151.325 237.811 149.023C237.811 146.722 235.945 144.857 233.644 144.857C231.343 144.857 229.478 146.722 229.478 149.023C229.478 151.325 231.343 153.19 233.644 153.19Z" fill="#072AC8"/>
<path d="M245.706 167.885C251.081 167.885 255.438 163.527 255.438 158.152C255.438 152.777 251.081 148.419 245.706 148.419C240.33 148.419 235.973 152.777 235.973 158.152C235.973 163.527 240.33 167.885 245.706 167.885Z" fill="#FFB6B6"/>
<path opacity="0.1" d="M189.227 175.427L217.167 187.786L188.451 182.174L189.227 175.427Z" fill="black"/>
<path d="M212.815 80.9329L210.469 72.0062C209.857 69.677 209.24 67.3008 209.378 64.8965C209.515 62.4921 210.535 60.0111 212.561 58.7085C214.586 57.406 217.678 57.7137 218.982 59.7387C219.23 56.5053 222.171 54.0181 225.292 53.137C228.413 52.2559 231.727 52.6043 234.966 52.753C238.206 52.9017 241.625 52.7979 244.421 51.1549C244.634 51.7942 244.62 52.4874 244.381 53.1175C244.143 53.7477 243.694 54.2761 243.11 54.6137C243.805 54.8033 244.547 54.7219 245.184 54.3858C245.821 54.0497 246.307 53.4841 246.543 52.8034C246.564 54.676 245.872 56.4865 244.607 57.8675C245.814 57.269 247.2 57.1407 248.496 57.5076C249.792 57.8746 250.905 58.7105 251.618 59.8528C253.045 62.3265 252.246 65.4332 251.411 68.1642L247.126 82.181C246.476 80.0502 246.354 77.8006 246.006 75.6002C245.659 73.3999 245.04 71.1528 243.588 69.4638C242.135 67.7749 239.668 66.7967 237.604 67.6353C236.446 68.1058 235.563 69.0604 234.518 69.7455C232.373 71.1511 229.645 71.3527 227.096 71.0667C224.548 70.7807 222.064 70.055 219.516 69.7651C217.921 69.5836 216.14 69.6317 214.937 70.6943C214.109 71.5545 213.562 72.6462 213.369 73.8244C212.801 76.1729 212.577 78.5915 212.706 81.0043" fill="#2F2E41"/>
</g>
<defs>
<clipPath id="clip0_443_7299">
<rect width="530.519" height="450" fill="white"/>
</clipPath>
</defs>
</svg>
