<svg width="217" height="138" viewBox="0 0 217 138" fill="none" xmlns="http://www.w3.org/2000/svg">
<g clip-path="url(#clip0_443_7194)">
<path d="M147.05 137.73H118.836C118.654 137.551 118.475 137.369 118.298 137.183C116.44 135.246 114.848 133.07 113.564 130.712C110.574 125.201 109.373 118.795 111.085 112.844C111.128 112.693 111.172 112.541 111.22 112.389C111.312 112.529 111.407 112.67 111.503 112.808C112.776 114.685 114.199 116.456 115.756 118.105C115.874 118.234 115.995 118.363 116.12 118.489C119.915 122.424 124.409 125.618 129.373 127.908C130.482 128.421 131.612 128.885 132.764 129.3C133.656 129.624 134.563 129.916 135.476 130.179C139.31 131.276 143.69 132.097 145.96 135.375C146.345 135.933 146.653 136.541 146.875 137.183C146.942 137.362 147 137.546 147.05 137.73Z" fill="#F0F0F0"/>
<path d="M139.625 137.183C139.801 137.355 139.966 137.538 140.12 137.73H139.563C139.39 137.536 139.204 137.353 139.007 137.183C138.39 136.644 137.647 136.272 136.847 136.102C136.329 135.999 135.801 135.956 135.273 135.973C134.229 135.996 133.176 136.191 132.145 136.309C131.885 136.339 131.625 136.361 131.368 136.375C130.023 136.475 128.673 136.284 127.409 135.816C125.831 135.218 124.414 134.238 123.135 133.15C122.312 132.451 121.524 131.711 120.771 130.928L120.481 130.625C115.821 125.641 112.577 119.503 111.085 112.844C111.055 112.718 111.027 112.589 111 112.46C110.944 112.196 111.363 112.159 111.418 112.421C111.446 112.55 111.473 112.679 111.503 112.808C112.107 115.507 113.009 118.131 114.192 120.631C114.25 120.759 114.31 120.886 114.374 121.01C116.046 124.471 118.245 127.652 120.893 130.439C120.918 130.468 120.946 130.496 120.975 130.526C121.594 131.172 122.237 131.795 122.905 132.394C124.161 133.518 125.534 134.549 127.085 135.232C128.365 135.791 129.757 136.044 131.151 135.97C131.29 135.966 131.43 135.957 131.57 135.945C131.68 135.936 131.791 135.927 131.904 135.915C132.957 135.803 134.02 135.605 135.085 135.561C135.567 135.538 136.05 135.558 136.529 135.621C137.704 135.789 138.792 136.338 139.625 137.183Z" fill="white"/>
<path d="M120.927 130.802C119.907 131.66 118.616 132.128 117.283 132.122C115.951 132.116 114.664 131.637 113.652 130.769C113.448 130.593 113.712 130.268 113.916 130.444C114.857 131.254 116.056 131.7 117.297 131.703C118.538 131.706 119.739 131.266 120.684 130.461C120.889 130.286 121.131 130.629 120.927 130.802V130.802Z" fill="white"/>
<path d="M131.139 136.099C131.396 133.387 130.622 130.677 128.97 128.511C128.807 128.296 129.148 128.054 129.312 128.268C131.026 130.525 131.826 133.347 131.552 136.168C131.526 136.437 131.113 136.366 131.139 136.099Z" fill="white"/>
<path d="M114.078 120.698C114.542 120.448 114.936 120.087 115.226 119.647C115.515 119.207 115.691 118.702 115.737 118.177C115.76 117.908 116.173 117.979 116.151 118.247C116.097 118.826 115.902 119.384 115.583 119.87C115.264 120.357 114.831 120.758 114.321 121.039C114.275 121.07 114.22 121.082 114.165 121.072C114.111 121.063 114.062 121.034 114.029 120.99C113.997 120.945 113.984 120.889 113.993 120.834C114.003 120.779 114.033 120.73 114.078 120.698Z" fill="white"/>
<path d="M154.763 137.558L154.636 137.73H136.15C136.055 137.548 135.961 137.367 135.869 137.183C135.664 136.782 135.466 136.379 135.273 135.973C135.209 135.839 135.142 135.704 135.085 135.563V135.561C134.141 133.542 133.365 131.448 132.764 129.302V129.3C132.437 128.124 132.171 126.933 131.966 125.73C131.441 122.62 131.409 119.447 131.871 116.327C131.874 116.311 131.876 116.295 131.878 116.279C132.81 110.077 135.708 104.242 140.653 100.52C140.656 100.518 140.656 100.518 140.658 100.518C140.785 100.421 140.909 100.332 141.035 100.237C141.026 100.405 141.017 100.568 141.01 100.736V100.746C140.894 103.01 140.963 105.28 141.215 107.533V107.536C141.231 107.71 141.252 107.885 141.272 108.06V108.062C141.937 113.487 143.603 118.74 146.185 123.556C146.185 123.557 146.185 123.557 146.186 123.557C146.186 123.558 146.186 123.558 146.186 123.558C146.186 123.558 146.187 123.558 146.187 123.559C146.187 123.559 146.187 123.559 146.188 123.559C147.215 125.474 148.388 127.308 149.695 129.045C151.501 131.446 153.649 133.903 154.533 136.677C154.588 136.845 154.636 137.012 154.68 137.183C154.71 137.307 154.737 137.433 154.763 137.558Z" fill="#F0F0F0"/>
<path d="M148.849 137.73H148.421C148.412 137.546 148.396 137.364 148.371 137.183C148.25 136.227 147.85 135.329 147.221 134.6C146.174 133.406 144.686 132.727 143.342 131.936C143.117 131.803 142.896 131.665 142.682 131.52C141.547 130.791 140.583 129.826 139.855 128.69C138.958 127.262 138.418 125.627 138.05 123.989C137.813 122.933 137.63 121.866 137.502 120.792C137.482 120.654 137.465 120.513 137.452 120.373C136.729 113.587 137.836 106.731 140.658 100.518C140.709 100.398 140.764 100.279 140.819 100.161C140.932 99.9174 141.288 100.141 141.173 100.382C141.118 100.499 141.063 100.619 141.01 100.736C139.868 103.258 139.008 105.897 138.445 108.608C138.415 108.746 138.388 108.884 138.363 109.019C137.615 112.788 137.455 116.65 137.889 120.467C137.893 120.513 137.898 120.557 137.903 120.601C138.011 121.489 138.15 122.37 138.321 123.246C138.648 124.9 139.124 126.549 139.95 128.028C140.635 129.243 141.594 130.282 142.751 131.062C142.866 131.145 142.984 131.223 143.103 131.299C143.198 131.359 143.292 131.418 143.388 131.476C144.709 132.267 146.151 132.925 147.255 134.025C148.104 134.878 148.646 135.988 148.796 137.183C148.823 137.364 148.841 137.547 148.849 137.73Z" fill="white"/>
<path d="M137.7 120.784C136.369 120.855 135.057 120.451 133.996 119.644C132.936 118.837 132.197 117.679 131.911 116.378C131.854 116.114 132.261 116.013 132.318 116.277C132.582 117.49 133.27 118.568 134.259 119.318C135.248 120.067 136.473 120.439 137.712 120.365C137.981 120.349 137.968 120.768 137.7 120.784Z" fill="white"/>
<path d="M142.665 131.161C144.503 129.151 145.516 126.521 145.502 123.797C145.5 123.527 145.919 123.539 145.921 123.808C145.931 126.643 144.871 129.377 142.953 131.465C142.77 131.664 142.483 131.359 142.665 131.161Z" fill="white"/>
<path d="M138.315 108.592C138.836 108.672 139.368 108.621 139.864 108.444C140.36 108.267 140.805 107.97 141.158 107.579C141.338 107.378 141.625 107.683 141.446 107.883C141.054 108.313 140.563 108.641 140.015 108.838C139.467 109.035 138.88 109.094 138.304 109.011C138.249 109.008 138.197 108.984 138.159 108.944C138.122 108.904 138.1 108.851 138.1 108.796C138.102 108.741 138.125 108.688 138.166 108.65C138.206 108.612 138.26 108.591 138.315 108.592H138.315Z" fill="white"/>
<path d="M6.41031 3.53738C7.36583 3.53738 8.14043 2.74551 8.14043 1.76869C8.14043 0.791868 7.36583 0 6.41031 0C5.45478 0 4.68018 0.791868 4.68018 1.76869C4.68018 2.74551 5.45478 3.53738 6.41031 3.53738Z" fill="#3F3D56"/>
<path d="M12.3871 3.53738C13.3426 3.53738 14.1172 2.74551 14.1172 1.76869C14.1172 0.791868 13.3426 0 12.3871 0C11.4316 0 10.657 0.791868 10.657 1.76869C10.657 2.74551 11.4316 3.53738 12.3871 3.53738Z" fill="#3F3D56"/>
<path d="M18.3639 3.53738C19.3194 3.53738 20.094 2.74551 20.094 1.76869C20.094 0.791868 19.3194 0 18.3639 0C17.4084 0 16.6338 0.791868 16.6338 1.76869C16.6338 2.74551 17.4084 3.53738 18.3639 3.53738Z" fill="#3F3D56"/>
<path d="M111.149 1.08185H106.903C106.819 1.07999 106.739 1.0453 106.68 0.985193C106.621 0.925087 106.588 0.844348 106.588 0.760268C106.588 0.676187 106.621 0.595449 106.68 0.535343C106.739 0.475237 106.819 0.440544 106.903 0.43869H111.149C111.233 0.440544 111.313 0.475237 111.372 0.535343C111.431 0.595449 111.464 0.676187 111.464 0.760268C111.464 0.844348 111.431 0.925087 111.372 0.985193C111.313 1.0453 111.233 1.07999 111.149 1.08185Z" fill="#3F3D56"/>
<path d="M111.149 2.28778H106.903C106.819 2.28592 106.739 2.25123 106.68 2.19113C106.621 2.13102 106.588 2.05028 106.588 1.9662C106.588 1.88212 106.621 1.80138 106.68 1.74128C106.739 1.68117 106.819 1.64648 106.903 1.64462H111.149C111.233 1.64648 111.313 1.68117 111.372 1.74128C111.431 1.80138 111.464 1.88212 111.464 1.9662C111.464 2.05028 111.431 2.13102 111.372 2.19113C111.313 2.25123 111.233 2.28592 111.149 2.28778Z" fill="#3F3D56"/>
<path d="M111.149 3.49368H106.903C106.819 3.49183 106.739 3.45713 106.68 3.39703C106.621 3.33692 106.588 3.25618 106.588 3.1721C106.588 3.08802 106.621 3.00729 106.68 2.94718C106.739 2.88708 106.819 2.85238 106.903 2.85052H111.149C111.233 2.85238 111.313 2.88708 111.372 2.94718C111.431 3.00729 111.464 3.08802 111.464 3.1721C111.464 3.25618 111.431 3.33692 111.372 3.39703C111.313 3.45713 111.233 3.49183 111.149 3.49368Z" fill="#3F3D56"/>
<path d="M115.578 6.67052H0.566444C0.505439 6.67052 0.446933 6.64628 0.403796 6.60315C0.36066 6.56001 0.336426 6.5015 0.336426 6.4405C0.336426 6.37949 0.36066 6.32099 0.403796 6.27785C0.446933 6.23471 0.505439 6.21048 0.566444 6.21048H115.578C115.639 6.21048 115.697 6.23471 115.74 6.27785C115.784 6.32099 115.808 6.37949 115.808 6.4405C115.808 6.5015 115.784 6.56001 115.74 6.60315C115.697 6.64628 115.639 6.67052 115.578 6.67052Z" fill="#CACACA"/>
<path d="M68.5824 53.8259H46.2927C45.7415 53.8259 45.2947 54.2728 45.2947 54.824C45.2947 55.3752 45.7415 55.822 46.2927 55.822H68.5824C69.1336 55.822 69.5804 55.3752 69.5804 54.824C69.5804 54.2728 69.1336 53.8259 68.5824 53.8259Z" fill="#072AC8"/>
<path d="M73.323 57.8181H41.552C41.0008 57.8181 40.554 58.2649 40.554 58.8161C40.554 59.3673 41.0008 59.8142 41.552 59.8142H73.323C73.8742 59.8142 74.3211 59.3673 74.3211 58.8161C74.3211 58.2649 73.8742 57.8181 73.323 57.8181Z" fill="#E6E6E6"/>
<path d="M73.323 61.8103H41.552C41.0008 61.8103 40.554 62.2571 40.554 62.8083C40.554 63.3595 41.0008 63.8064 41.552 63.8064H73.323C73.8742 63.8064 74.3211 63.3595 74.3211 62.8083C74.3211 62.2571 73.8742 61.8103 73.323 61.8103Z" fill="#E6E6E6"/>
<path d="M69.2723 22.3135H46.9827C46.4315 22.3135 45.9846 22.7603 45.9846 23.3115V23.3115C45.9846 23.8627 46.4315 24.3095 46.9827 24.3095H69.2723C69.8235 24.3095 70.2703 23.8627 70.2703 23.3115C70.2703 22.7603 69.8235 22.3135 69.2723 22.3135Z" fill="#072AC8"/>
<path d="M74.013 26.3056H42.2419C41.6907 26.3056 41.2439 26.7525 41.2439 27.3037V27.3037C41.2439 27.8549 41.6907 28.3017 42.2419 28.3017H74.013C74.5642 28.3017 75.011 27.8549 75.011 27.3037C75.011 26.7525 74.5642 26.3056 74.013 26.3056Z" fill="#E6E6E6"/>
<path d="M74.013 30.2978H42.2419C41.6907 30.2978 41.2439 30.7447 41.2439 31.2959V31.2959C41.2439 31.8471 41.6907 32.2939 42.2419 32.2939H74.013C74.5642 32.2939 75.011 31.8471 75.011 31.2959C75.011 30.7447 74.5642 30.2978 74.013 30.2978Z" fill="#E6E6E6"/>
<path d="M153.291 132.016H150.342L148.94 120.644L153.291 120.644L153.291 132.016Z" fill="#9E616A"/>
<path d="M154.877 137.614H152.785L152.411 135.638L151.455 137.614H145.906C145.64 137.614 145.381 137.529 145.167 137.371C144.953 137.213 144.795 136.991 144.715 136.737C144.636 136.484 144.64 136.211 144.727 135.96C144.814 135.708 144.979 135.491 145.198 135.34L149.628 132.28V130.283L154.289 130.561L154.877 137.614Z" fill="#2F2E41"/>
<path d="M180.668 129.082L178.057 130.452L171.529 121.036L175.382 119.013L180.668 129.082Z" fill="#9E616A"/>
<path d="M184.674 133.301L182.822 134.273L181.573 132.698L181.645 134.891L176.732 137.471C176.497 137.594 176.228 137.64 175.965 137.6C175.702 137.56 175.459 137.437 175.271 137.249C175.082 137.061 174.959 136.817 174.919 136.554C174.879 136.292 174.924 136.023 175.048 135.787L177.548 131.018L176.62 129.25L180.876 127.33L184.674 133.301Z" fill="#2F2E41"/>
<path d="M142.023 23.081V32.5225C144.205 31.9393 146.452 31.6307 148.711 31.604C150.293 31.5882 151.874 31.7199 153.432 31.9973C154.209 32.1331 154.995 32.3081 155.792 32.5225C157.462 29.0115 157.989 25.7502 155.792 23.081C155.792 22.3319 155.645 21.5901 155.358 20.8979C155.071 20.2058 154.651 19.5769 154.121 19.0472C153.592 18.5175 152.963 18.0973 152.271 17.8107C151.579 17.5241 150.837 17.3766 150.088 17.3767H147.727C146.978 17.3766 146.236 17.5241 145.544 17.8107C144.852 18.0973 144.223 18.5175 143.693 19.0472C143.164 19.5769 142.744 20.2058 142.457 20.8979C142.17 21.5901 142.023 22.3319 142.023 23.081Z" fill="#2F2E41"/>
<path d="M170.804 123.558L156.368 98.4902C156.236 98.2591 156.168 97.9971 156.17 97.731C156.173 97.4649 156.247 97.2044 156.384 96.9761L162.53 86.7318C162.676 86.4888 162.888 86.2922 163.141 86.1646C163.394 86.0371 163.678 85.9839 163.96 86.0113C164.242 86.0387 164.51 86.1456 164.734 86.3194C164.958 86.4933 165.128 86.727 165.224 86.9936L177.632 120.355C177.76 120.705 177.752 121.091 177.61 121.436C177.468 121.78 177.202 122.06 176.864 122.218L172.746 124.168C172.548 124.262 172.331 124.311 172.111 124.311C171.846 124.312 171.586 124.242 171.356 124.11C171.127 123.978 170.937 123.787 170.804 123.558Z" fill="#2F2E41"/>
<path d="M153.569 128.719L147.464 128.015C147.267 127.992 147.076 127.93 146.902 127.832C146.729 127.735 146.576 127.604 146.454 127.447C146.332 127.29 146.242 127.11 146.19 126.918C146.138 126.726 146.125 126.526 146.151 126.329L151.599 85.3046C151.618 85.1616 151.611 85.0165 151.577 84.8764L146.1 62.282C146.049 62.0736 146.043 61.8565 146.083 61.6456C146.124 61.4347 146.21 61.2352 146.335 61.0608C147.184 59.89 150.094 57.1616 158.749 57.1099H158.759C159.047 57.1099 159.329 57.1928 159.571 57.3487C159.814 57.5046 160.006 57.7268 160.126 57.989L161.281 60.5289C161.367 60.7174 161.501 60.8798 161.67 60.9993C163.26 62.1243 170.958 68.4385 166.438 82.3011C161.995 95.9263 156.302 122.378 155.206 127.543C155.136 127.878 154.953 128.179 154.687 128.396C154.421 128.612 154.088 128.729 153.745 128.729C153.686 128.729 153.628 128.726 153.569 128.719Z" fill="#2F2E41"/>
<path d="M146.437 31.5012C149.805 31.5012 152.535 28.7712 152.535 25.4035C152.535 22.0359 149.805 19.3058 146.437 19.3058C143.069 19.3058 140.339 22.0359 140.339 25.4035C140.339 28.7712 143.069 31.5012 146.437 31.5012Z" fill="#9E616A"/>
<path d="M146.59 60.7326L146.657 59.8258C146.61 59.8022 146.562 59.7767 146.513 59.7472C143.777 58.1606 140.305 50.0201 138.126 44.2607C137.555 42.7474 137.559 41.0772 138.137 39.5664C138.714 38.0556 139.826 36.8091 141.261 36.063L141.263 36.0623C141.317 36.0381 141.364 35.9991 141.397 35.9498L151.459 34.0403C151.503 34.0224 151.549 34.0142 151.596 34.0165L157.761 34.3137C158.585 34.3534 159.373 34.6611 160.005 35.19C160.637 35.7189 161.08 36.4399 161.264 37.2433L163.266 54.1594C163.273 54.1899 163.187 54.528 163.203 54.5551C163.229 54.6014 163.279 54.6874 163.351 54.81C163.537 55.1326 164.006 57.3086 164.446 58.0934C163.485 61.0154 150.874 60.2571 146.59 60.7326Z" fill="#E4E4E4"/>
<path opacity="0.1" d="M156.393 44.5816L158.754 53.4332L154.427 60.1209L156.393 53.4332V44.5816Z" fill="black"/>
<path d="M139.749 62.3829L148.404 68.6773L151.355 67.3004L144.863 61.7928L139.749 62.3829Z" fill="#9E616A"/>
<path d="M142.7 54.515L146.83 62.5796L136.012 64.1532C136.012 64.1532 137.192 41.1394 137.782 39.5658C138.104 38.8239 138.519 38.1257 139.016 37.488C139.431 36.9303 140.005 36.511 140.662 36.2851C141.319 36.0591 142.03 36.0371 142.7 36.222V54.515Z" fill="#E4E4E4"/>
<path d="M150.874 72.059C152.286 72.059 153.431 70.9142 153.431 69.5019C153.431 68.0897 152.286 66.9449 150.874 66.9449C149.462 66.9449 148.317 68.0897 148.317 69.5019C148.317 70.9142 149.462 72.059 150.874 72.059Z" fill="#9E616A"/>
<path d="M174.063 69.9449L121.563 64.4931C121.165 64.4517 120.762 64.4892 120.378 64.6035C119.994 64.7178 119.636 64.9065 119.325 65.1591C119.014 65.4116 118.756 65.723 118.565 66.0753C118.374 66.4277 118.255 66.8142 118.213 67.2127L116.902 79.8391C116.861 80.2376 116.898 80.6404 117.013 81.0244C117.127 81.4085 117.316 81.7662 117.568 82.0773C117.821 82.3884 118.132 82.6466 118.485 82.8374C118.837 83.0281 119.223 83.1476 119.622 83.189L120.393 83.269L124.363 83.6814L172.122 88.6408C172.521 88.6822 172.923 88.6447 173.307 88.5304C173.691 88.4162 174.049 88.2273 174.36 87.9748C174.671 87.7223 174.93 87.4109 175.12 87.0586C175.311 86.7062 175.431 86.3197 175.472 85.9212L176.783 73.2948C176.825 72.8963 176.787 72.4935 176.673 72.1095C176.558 71.7254 176.37 71.3677 176.117 71.0566C175.865 70.7455 175.553 70.4873 175.201 70.2965C174.848 70.1058 174.462 69.9863 174.063 69.9449Z" fill="#CACACA"/>
<path d="M172.282 87.1008L119.782 81.649C119.386 81.6074 119.022 81.4103 118.771 81.101C118.52 80.7917 118.402 80.3954 118.442 79.9991L119.754 67.3726C119.795 66.9764 119.992 66.6128 120.302 66.3617C120.611 66.1106 121.007 65.9924 121.404 66.0331L161.277 70.1738C165.021 70.5668 168.455 72.4287 170.828 75.3509C173.2 78.2731 174.316 82.017 173.932 85.7613C173.89 86.1576 173.693 86.5211 173.384 86.7722C173.075 87.0234 172.678 87.1415 172.282 87.1008Z" fill="white"/>
<path d="M158.507 72.6776L136.337 70.3753C135.788 70.3184 135.298 70.7167 135.241 71.2649L135.241 71.2649C135.184 71.8132 135.582 72.3038 136.131 72.3607L158.301 74.663C158.849 74.7199 159.34 74.3216 159.397 73.7734C159.454 73.2251 159.055 72.7345 158.507 72.6776Z" fill="#072AC8"/>
<path d="M162.81 77.1381L131.209 73.8565C130.661 73.7995 130.17 74.1978 130.113 74.7461C130.056 75.2943 130.455 75.7849 131.003 75.8419L162.604 79.1235C163.152 79.1804 163.643 78.7821 163.7 78.2339C163.757 77.6856 163.358 77.195 162.81 77.1381Z" fill="#E6E6E6"/>
<path d="M162.398 81.1089L130.797 77.8273C130.248 77.7703 129.758 78.1686 129.701 78.7169C129.644 79.2651 130.042 79.7557 130.59 79.8127L162.192 83.0943C162.74 83.1512 163.23 82.7529 163.287 82.2046C163.344 81.6564 162.946 81.1658 162.398 81.1089Z" fill="#E6E6E6"/>
<path d="M156.295 60.6126L149.804 66.1202L152.754 67.4971L161.409 61.2027L156.295 60.6126Z" fill="#9E616A"/>
<path d="M158.459 35.0418C159.129 34.8569 159.839 34.8789 160.496 35.1049C161.154 35.3308 161.727 35.7501 162.142 36.3079C162.64 36.9455 163.054 37.6437 163.376 38.3857C163.966 39.9593 165.147 62.973 165.147 62.973L154.328 61.3994L158.459 53.3348L158.459 35.0418Z" fill="#E4E4E4"/>
<path d="M150.284 70.8788C151.696 70.8788 152.841 69.734 152.841 68.3218C152.841 66.9095 151.696 65.7647 150.284 65.7647C148.872 65.7647 147.727 66.9095 147.727 68.3218C147.727 69.734 148.872 70.8788 150.284 70.8788Z" fill="#9E616A"/>
<path d="M145.564 18.7536H152.645V22.0975H153.431V31.9974C151.874 31.7199 150.293 31.5882 148.711 31.604C149.339 29.2842 149.546 27.2482 149.414 25.4414H143.303C143.053 24.8588 142.962 24.2205 143.039 23.5914C142.622 24.1274 142.36 24.7671 142.28 25.4414H138.876V25.4414C138.876 24.5631 139.049 23.6935 139.385 22.8821C139.721 22.0707 140.214 21.3334 140.835 20.7124C141.456 20.0914 142.193 19.5988 143.004 19.2627C143.816 18.9266 144.685 18.7536 145.564 18.7536Z" fill="#2F2E41"/>
<path d="M216.118 137.456C216.118 137.492 216.111 137.528 216.097 137.561C216.083 137.595 216.063 137.625 216.038 137.65C216.012 137.676 215.982 137.696 215.949 137.709C215.916 137.723 215.88 137.73 215.844 137.73H66.9558C66.8832 137.73 66.8136 137.701 66.7623 137.65C66.711 137.599 66.6821 137.529 66.6821 137.456C66.6821 137.384 66.711 137.314 66.7623 137.263C66.8136 137.211 66.8832 137.183 66.9558 137.183H215.844C215.88 137.183 215.916 137.19 215.949 137.203C215.982 137.217 216.012 137.237 216.038 137.263C216.063 137.288 216.083 137.318 216.097 137.351C216.111 137.385 216.118 137.42 216.118 137.456Z" fill="#CACACA"/>
<path d="M18.3714 30.8371C20.2769 30.8371 21.8217 29.2924 21.8217 27.3868C21.8217 25.4813 20.2769 23.9366 18.3714 23.9366C16.4659 23.9366 14.9211 25.4813 14.9211 27.3868C14.9211 29.2924 16.4659 30.8371 18.3714 30.8371Z" fill="#F0F0F0"/>
<path d="M18.3714 63.4849C20.2769 63.4849 21.8217 61.9402 21.8217 60.0346C21.8217 58.1291 20.2769 56.5844 18.3714 56.5844C16.4659 56.5844 14.9211 58.1291 14.9211 60.0346C14.9211 61.9402 16.4659 63.4849 18.3714 63.4849Z" fill="#F0F0F0"/>
<path d="M107.848 75.2158C109.754 75.2158 111.298 73.6711 111.298 71.7656C111.298 69.86 109.754 68.3153 107.848 68.3153C105.943 68.3153 104.398 69.86 104.398 71.7656C104.398 73.6711 105.943 75.2158 107.848 75.2158Z" fill="#F0F0F0"/>
</g>
<defs>
<clipPath id="clip0_443_7194">
<rect width="215.781" height="137.73" fill="white" transform="translate(0.336426)"/>
</clipPath>
</defs>
</svg>
