<svg width="145" height="139" viewBox="0 0 145 139" fill="none" xmlns="http://www.w3.org/2000/svg">
<g clip-path="url(#clip0_443_7125)">
<path d="M33.2802 17.9251C38.2273 17.9251 42.2377 13.9124 42.2377 8.96254C42.2377 4.01267 38.2273 0 33.2802 0C28.3331 0 24.3228 4.01267 24.3228 8.96254C24.3228 13.9124 28.3331 17.9251 33.2802 17.9251Z" fill="#FF6584"/>
<path d="M43.36 66.1096C39.8595 66.1096 36.4742 64.8588 33.8139 62.5825C32.9264 61.8224 31.9808 60.501 31.0034 58.6552C30.3797 57.4663 30.0304 56.1526 29.9811 54.8107C29.9318 53.4689 30.1839 52.133 30.7188 50.9015C30.2032 51.4262 29.633 51.8942 29.0178 52.2975L28.7068 52.5045L28.6889 52.1314C28.6771 51.8887 28.6711 51.6469 28.6711 51.4126C28.6711 50.0318 29.7149 48.6306 29.2335 47.3543C27.2046 41.975 20.7695 36.629 30.0959 28.3038C30.9587 27.5336 29.8062 25.9939 29.8062 24.8287C29.8062 13.4094 42.2066 -3.72041 50.5079 4.11922C55.3535 8.69527 65.4488 11.946 70.1624 18.3111L70.2248 18.4997L70.0408 18.5742C69.0991 18.9702 68.1071 19.2341 67.0932 19.3586C68.1741 19.5792 69.2773 19.6716 70.3799 19.6341L70.5509 19.6281L70.5926 19.7944C71.0027 21.441 71.21 23.1317 71.2097 24.8287L71.2089 25.0121C71.2051 26.3011 71.4729 27.5763 71.9947 28.7548C72.5165 29.9333 73.2807 30.9885 74.2374 31.8517C75.7486 33.2303 76.9562 34.9089 77.7832 36.7804C78.6101 38.6518 79.0383 40.6752 79.0405 42.7214C79.0405 45.1422 77.3961 48.32 76.0165 50.5595C75.6669 51.13 75.1927 51.6139 74.6295 51.9748C74.0664 52.3357 73.4288 52.5644 72.7647 52.6436C72.1357 52.723 71.4969 52.663 70.8936 52.468C70.2903 52.273 69.7372 51.9477 69.2734 51.5151C69.9264 52.8287 70.7773 54.0341 71.7963 55.089L71.9845 55.2831L71.7508 55.4193C69.505 56.7296 66.9516 57.4196 64.3518 57.4186L64.1996 57.4182C60.2526 57.4182 56.5061 58.9482 53.9208 61.6159C52.5482 63.0307 50.9069 64.157 49.0934 64.9287C47.2799 65.7003 45.3306 66.1018 43.36 66.1096Z" fill="#E6E6E6"/>
<path d="M38.1801 89.132C38.1166 89.132 38.0552 89.109 38.0072 89.0673C37.9592 89.0256 37.9279 88.9679 37.9189 88.905C37.9077 88.8261 36.8084 80.8934 37.7957 70.3506C38.7075 60.614 41.6355 46.5899 50.4067 35.0721C50.4278 35.0445 50.454 35.0213 50.484 35.0038C50.514 34.9864 50.5471 34.975 50.5815 34.9704C50.6159 34.9657 50.6508 34.9679 50.6844 34.9768C50.7179 34.9856 50.7494 35.001 50.777 35.0221C50.8046 35.0431 50.8277 35.0694 50.8452 35.0994C50.8626 35.1294 50.874 35.1625 50.8786 35.1969C50.8833 35.2313 50.8811 35.2663 50.8723 35.2999C50.8634 35.3334 50.848 35.3649 50.827 35.3925C42.1315 46.8108 39.2271 60.732 38.3217 70.3999C37.3402 80.8814 38.4309 88.7522 38.442 88.8305C38.4473 88.868 38.4445 88.9062 38.4338 88.9425C38.423 88.9788 38.4046 89.0124 38.3798 89.041C38.355 89.0696 38.3243 89.0925 38.2899 89.1082C38.2554 89.1239 38.218 89.1321 38.1801 89.132H38.1801Z" fill="#CCCCCC"/>
<path d="M46.1892 51.027C46.1334 51.0271 46.079 51.0094 46.0338 50.9766C45.9887 50.9439 45.955 50.8976 45.9378 50.8445C45.9205 50.7914 45.9205 50.7342 45.9377 50.6811C45.9549 50.628 45.9885 50.5817 46.0337 50.5489C48.5329 48.8562 51.2329 47.481 54.0713 46.455C58.5058 44.8306 65.2492 43.3579 72.1914 45.5686C72.2244 45.5791 72.2551 45.5961 72.2816 45.6185C72.3081 45.6408 72.3299 45.6682 72.3459 45.699C72.3618 45.7299 72.3715 45.7635 72.3745 45.7981C72.3774 45.8327 72.3735 45.8675 72.363 45.9006C72.3524 45.9337 72.3355 45.9643 72.3131 45.9909C72.2908 46.0174 72.2634 46.0393 72.2326 46.0552C72.2018 46.0711 72.1681 46.0809 72.1336 46.0838C72.099 46.0867 72.0642 46.0828 72.0312 46.0723C65.2312 43.907 58.6101 45.3553 54.253 46.9514C51.4602 47.9599 48.8035 49.312 46.3443 50.9765C46.2992 51.0094 46.2449 51.0271 46.1892 51.027Z" fill="#CCCCCC"/>
<path d="M33.9177 19.8098C33.9136 19.7541 33.9273 19.6986 33.9567 19.6512C33.9862 19.6037 34.0299 19.5669 34.0815 19.5458C34.1332 19.5247 34.1902 19.5206 34.2444 19.534C34.2986 19.5473 34.3471 19.5775 34.3831 19.6202C36.2504 21.9925 37.8157 24.5879 39.0429 27.3467C40.9816 31.6553 42.9352 38.2789 41.2314 45.3661C41.2233 45.3999 41.2087 45.4317 41.1883 45.4598C41.1679 45.4879 41.1422 45.5117 41.1126 45.5299C41.083 45.548 41.0501 45.5601 41.0158 45.5656C40.9815 45.571 40.9465 45.5696 40.9128 45.5615C40.8791 45.5534 40.8472 45.5387 40.8192 45.5182C40.7911 45.4978 40.7673 45.4721 40.7492 45.4424C40.7311 45.4128 40.719 45.3799 40.7136 45.3456C40.7082 45.3113 40.7097 45.2763 40.7178 45.2425C42.3865 38.3005 40.466 31.7971 38.5611 27.5638C37.3547 24.8492 35.8156 22.2954 33.9792 19.961C33.9432 19.9184 33.9217 19.8655 33.9177 19.8098Z" fill="#CCCCCC"/>
<path d="M98.3651 105.192C80.1958 105.192 66.2498 104.235 56.57 100.399C32.9933 91.0538 25.0004 87.1732 24.9224 87.1351L25.0815 86.8093C25.1593 86.8474 33.1443 90.7236 56.7035 100.061C70.6775 105.6 93.6696 105.106 125.493 104.422C131.464 104.294 137.639 104.161 144.216 104.056L144.221 104.418C137.646 104.524 131.472 104.657 125.5 104.785C115.601 104.998 106.554 105.192 98.3651 105.192Z" fill="#CACACA"/>
<path d="M21.6871 128.983L21.4309 128.727C30.234 119.919 33.6263 116.551 34.345 115.839L8.40601 97.0912L8.61818 96.7973L34.9041 115.795L34.7519 115.946C34.7227 115.975 31.718 118.947 21.6871 128.983Z" fill="#CACACA"/>
<path d="M34.7479 138.463L34.5007 138.197C35.3128 137.439 54.4134 119.643 58.1354 119.643H58.1471L143.694 120.515L143.691 120.877L58.1434 120.006H58.1329C54.5564 120.006 34.9459 138.278 34.7479 138.463Z" fill="#CACACA"/>
<path d="M141.881 110.724H119.909V111.086H141.881V110.724Z" fill="#CACACA"/>
<path d="M100.747 110.724H78.7749V111.086H100.747V110.724Z" fill="#CACACA"/>
<path d="M77.7333 81.5042H65.0488V78.2979H69.7602C70.0486 78.2979 70.3251 78.1833 70.529 77.9793C70.7329 77.7753 70.8475 77.4985 70.8475 77.21V73.7365C70.8475 73.448 70.7329 73.1713 70.529 72.9673C70.3251 72.7633 70.0486 72.6486 69.7602 72.6486H65.0488V71.5608C65.0488 71.1761 64.8961 70.8072 64.6242 70.5351C64.3524 70.2631 63.9836 70.1103 63.5992 70.1103C63.2147 70.1103 62.846 70.2631 62.5741 70.5351C62.3022 70.8072 62.1495 71.1761 62.1495 71.5608V72.6486H44.7372C44.5121 72.6486 44.2925 72.7185 44.1088 72.8487L41.6576 74.5855C41.5158 74.686 41.4001 74.819 41.3202 74.9735C41.2404 75.128 41.1987 75.2994 41.1987 75.4733C41.1987 75.6472 41.2404 75.8186 41.3202 75.973C41.4001 76.1275 41.5158 76.2606 41.6576 76.3611L44.1088 78.0978C44.2925 78.228 44.5121 78.2979 44.7372 78.2979H62.1495V81.5042H49.465C49.1766 81.5042 48.9001 81.6188 48.6962 81.8228C48.4923 82.0269 48.3778 82.3036 48.3778 82.5921V86.0656C48.3778 86.3541 48.4923 86.6308 48.6962 86.8348C48.9001 87.0389 49.1766 87.1535 49.465 87.1535H62.1495V99.1199C62.1495 99.5046 62.3022 99.8736 62.5741 100.146C62.846 100.418 63.2147 100.57 63.5992 100.57C63.9836 100.57 64.3524 100.418 64.6242 100.146C64.8961 99.8736 65.0488 99.5046 65.0488 99.1199V87.1535H77.7333C78.0217 87.1535 78.2982 87.0389 78.5021 86.8348C78.706 86.6308 78.8206 86.3541 78.8206 86.0656V82.5921C78.8206 82.4492 78.7925 82.3078 78.7378 82.1758C78.6832 82.0438 78.6031 81.9239 78.5021 81.8228C78.4012 81.7218 78.2813 81.6417 78.1494 81.587C78.0175 81.5324 77.8761 81.5042 77.7333 81.5042Z" fill="#3F3D56"/>
<path d="M56.3508 75.6403H47.2905C47.1223 75.6403 46.9609 75.5734 46.842 75.4544C46.7231 75.3354 46.6562 75.174 46.6562 75.0057C46.6562 74.8374 46.7231 74.676 46.842 74.557C46.9609 74.438 47.1223 74.3711 47.2905 74.3711H56.3508C56.5191 74.3711 56.6804 74.438 56.7993 74.557C56.9182 74.676 56.9851 74.8374 56.9851 75.0057C56.9851 75.174 56.9182 75.3354 56.7993 75.4544C56.6804 75.5734 56.5191 75.6403 56.3508 75.6403Z" fill="#072AC8"/>
<path d="M67.5857 84.8871H58.5253C58.3571 84.8871 58.1958 84.8202 58.0769 84.7012C57.9579 84.5822 57.8911 84.4208 57.8911 84.2525C57.8911 84.0842 57.9579 83.9228 58.0769 83.8038C58.1958 83.6848 58.3571 83.6179 58.5253 83.6179H67.5857C67.7539 83.6179 67.9152 83.6848 68.0342 83.8038C68.1531 83.9228 68.2199 84.0842 68.2199 84.2525C68.2199 84.4208 68.1531 84.5822 68.0342 84.7012C67.9152 84.8202 67.7539 84.8871 67.5857 84.8871Z" fill="white"/>
<path d="M24.0959 99.6352V96.4289H28.8073C29.0956 96.4289 29.3722 96.3143 29.5761 96.1103C29.78 95.9063 29.8945 95.6296 29.8945 95.341V91.8675C29.8945 91.579 29.78 91.3023 29.5761 91.0983C29.3722 90.8943 29.0956 90.7797 28.8073 90.7797H24.0959V89.7415C24.1007 89.3672 23.9639 89.0049 23.713 88.7272C23.462 88.4496 23.1154 88.2771 22.7427 88.2445C22.5446 88.2312 22.346 88.2589 22.159 88.3256C21.9721 88.3924 21.8008 88.4969 21.6559 88.6326C21.5109 88.7682 21.3953 88.9323 21.3163 89.1145C21.2373 89.2967 21.1966 89.4932 21.1966 89.6918V90.7797L1.69705 99.9085C1.61731 99.9456 1.54604 99.9988 1.48763 100.065C1.42922 100.13 1.38492 100.208 1.35747 100.291C1.20388 100.759 0.88124 101.758 0.661793 102.546C0.626549 102.674 0.621831 102.809 0.64802 102.939C0.67421 103.069 0.730575 103.191 0.812566 103.295C0.894557 103.399 0.99988 103.483 1.12004 103.539C1.24021 103.595 1.37184 103.622 1.50434 103.617C2.76098 103.579 3.58781 103.52 4.16167 103.504C4.27236 103.501 4.38134 103.476 4.48237 103.431L21.1966 96.4289V105.284V117.201C21.1917 117.576 21.3285 117.938 21.5795 118.216C21.8304 118.493 22.177 118.666 22.5497 118.698C22.7478 118.712 22.9464 118.684 23.1334 118.617C23.3204 118.55 23.4916 118.446 23.6366 118.31C23.7815 118.175 23.8971 118.01 23.9761 117.828C24.0551 117.646 24.0959 117.45 24.0959 117.251V99.6352H24.0959Z" fill="#3F3D56"/>
<path d="M16.5295 96.485L8.26183 100.193C8.10834 100.262 7.9338 100.267 7.77661 100.207C7.61942 100.147 7.49246 100.027 7.42365 99.8739C7.35485 99.7203 7.34983 99.5457 7.40971 99.3884C7.46959 99.2311 7.58946 99.1041 7.74295 99.0352L16.0106 95.3269C16.1641 95.258 16.3386 95.253 16.4958 95.3129C16.653 95.3728 16.78 95.4928 16.8488 95.6463C16.9176 95.7999 16.9226 95.9745 16.8627 96.1318C16.8028 96.2891 16.683 96.4161 16.5295 96.485Z" fill="white"/>
<path d="M127.328 66.944L123.55 67.3276C123.378 69.27 123.717 71.2236 124.531 72.995L123.398 83.5601L123.415 83.5599C123.303 83.7529 123.246 83.9727 123.25 84.1957C123.254 84.4186 123.318 84.6364 123.436 84.8254C123.555 85.0144 123.722 85.1676 123.921 85.2685C124.12 85.3694 124.342 85.4141 124.565 85.3979C124.787 85.3817 125.001 85.3052 125.183 85.1766C125.365 85.0479 125.508 84.8721 125.598 84.6679C125.688 84.4637 125.72 84.2389 125.691 84.0177C125.663 83.7965 125.575 83.5873 125.436 83.4125L127.956 73.9855L127.328 66.944Z" fill="#A0616A"/>
<path d="M115.707 113.321L114.102 113.044L113.944 108.195L116.774 107.125L115.707 113.321Z" fill="#A0616A"/>
<path d="M115.475 115.006L110.538 114.155L110.549 114.093C110.636 113.583 110.923 113.129 111.346 112.83C111.768 112.532 112.292 112.413 112.801 112.501L112.801 112.501L113.821 111.972L115.386 112.947L115.817 113.021L115.475 115.006Z" fill="#2F2E41"/>
<path d="M131.814 109.964L130.423 110.813L126.487 105.852L128.539 104.598L131.814 109.964Z" fill="#A0616A"/>
<path d="M132.748 111.385L128.473 113.998L128.44 113.943C128.17 113.502 128.087 112.971 128.209 112.468C128.33 111.965 128.646 111.531 129.088 111.261L129.088 111.261L129.507 110.191L131.326 109.894L131.699 109.666L132.748 111.385Z" fill="#2F2E41"/>
<path d="M116.256 83.8328L115.293 87.4955C115.293 87.4955 115.03 89.0134 115.166 89.1497C115.398 89.4788 115.516 89.8753 115.5 90.2779C115.438 90.6493 114.815 90.498 115.127 91.0508C115.438 91.6037 114.475 100.017 114.475 100.017L113.612 110.361L116.693 110.724C117.135 110.465 117.2 110.17 116.939 109.845C116.939 109.845 117.571 109.115 117.222 108.832C116.874 108.548 117.503 108.429 117.538 107.705L119.526 100.602L120.184 99.0135L120.012 98.1851L120.512 97.234L120.752 94.7393L121.404 101.296L127.492 108.291L130.49 106.791L130.666 106.408C130.738 106.25 130.751 106.072 130.701 105.905C130.651 105.739 130.542 105.597 130.394 105.506L129.377 104.559C129.464 104.169 128.081 103.192 128.081 103.192L125.765 98.8293L127.203 86.6095C127.203 86.6095 129.377 83.7086 126.497 81.0836C125.316 80.0082 116.256 83.8328 116.256 83.8328Z" fill="#2F2E41"/>
<path d="M125.526 79.0208C126.037 78.2614 127.263 79.3521 126.855 77.9888C126.446 76.6254 125.412 76.372 126.338 75.0672L127.672 68.5636C127.752 67.0113 127.225 65.4888 126.203 64.3183L124.282 62.1183L123.993 61.338L120.723 61.2017L120.451 62.156C119.474 63.3731 117.875 64.936 117.923 67.2347C118.015 71.6582 117.325 77.5442 115.627 85.2015C115.627 85.2015 119.425 82.2343 120.619 83.5198C121.813 84.8054 125.411 84.4559 126.31 83.5601C126.886 82.9408 127.306 82.193 127.536 81.3788C127.536 81.3788 125.016 79.7803 125.526 79.0208Z" fill="#072AC8"/>
<path d="M127.591 84.18L120.136 82.0768L115.243 84.4338C117.434 80.3554 118.767 73.5648 118.346 67.7961C118.245 66.5703 118.485 65.3405 119.041 64.2434C119.713 62.9481 120.765 62.0329 122.31 62.1326L124.304 61.9513L125.572 62.6766C127.407 64.6005 128.129 67.4709 127.844 70.1154C127.529 73.034 127.136 76.5797 127.057 76.8963C127.011 77.0824 127.157 77.409 127.313 77.7549C127.575 78.3384 127.901 79.0647 127.448 79.5183C127.311 79.6399 127.2 79.7887 127.124 79.9553C127.047 80.1219 127.006 80.3026 127.003 80.486C127.015 80.6491 127.06 80.808 127.136 80.9528C127.212 81.0976 127.317 81.2251 127.444 81.3272C128.024 81.8279 127.62 84.0247 127.603 84.1179L127.591 84.18Z" fill="#2F2E41"/>
<path d="M123.788 69.7348L120.042 69.1089C119.365 70.9376 119.177 72.9113 119.497 74.8349L115.622 84.728L115.638 84.7322C115.479 84.889 115.367 85.086 115.312 85.3021C115.257 85.5182 115.262 85.7453 115.326 85.9588C115.39 86.1723 115.511 86.3643 115.677 86.514C115.842 86.6637 116.045 86.7655 116.263 86.8085C116.482 86.8514 116.708 86.8339 116.918 86.7578C117.127 86.6817 117.312 86.5499 117.453 86.3766C117.593 86.2032 117.683 85.9949 117.714 85.774C117.745 85.5531 117.715 85.328 117.627 85.123L122.54 76.693L123.788 69.7348Z" fill="#A0616A"/>
<path d="M119.411 71.7421L123.76 70.8355L124.47 67.6774C124.47 67.027 124.211 66.4033 123.751 65.9436C123.291 65.4838 122.668 65.2256 122.018 65.2256C121.368 65.2256 120.744 65.4838 120.284 65.9436C119.824 66.4033 119.566 67.027 119.565 67.6774C119.127 69.4349 119.203 69.9441 119.411 71.7421Z" fill="#072AC8"/>
<path d="M122.222 60.7927C124.103 60.7927 125.628 59.2667 125.628 57.3844C125.628 55.502 124.103 53.9761 122.222 53.9761C120.341 53.9761 118.816 55.502 118.816 57.3844C118.816 59.2667 120.341 60.7927 122.222 60.7927Z" fill="#A0616A"/>
<path d="M126.173 54.7941C125.908 54.3195 124.854 54.9267 124.527 54.4923C124.268 54.1139 123.938 53.7892 123.556 53.5361C123.239 53.3517 122.88 53.2527 122.514 53.2486C122.147 53.2445 121.786 53.3355 121.465 53.5128C121.23 53.6806 120.978 53.8237 120.714 53.9399C120.438 54.0278 120.079 53.9614 119.96 53.6981C120.044 53.9282 120.128 54.1582 120.212 54.3883C119.989 54.4915 119.736 54.5073 119.502 54.4327C119.268 54.358 119.07 54.1982 118.948 53.9849C118.934 54.2231 118.919 54.4613 118.904 54.6995C118.884 54.6343 118.842 54.5783 118.785 54.5417C118.727 54.5051 118.659 54.4902 118.591 54.4998C118.507 54.5254 118.43 54.5725 118.369 54.6365C118.308 54.7004 118.264 54.7791 118.243 54.8649C118.027 55.498 118.542 56.237 119.202 56.3431C119.61 56.4087 120.021 56.2777 120.43 56.2221C120.84 56.1665 121.314 56.2129 121.573 56.5355C121.827 56.8523 121.778 57.3037 121.792 57.7096C121.807 58.1155 121.984 58.6026 122.387 58.6567C122.663 58.6939 122.927 58.5012 123.205 58.5177C123.602 58.5413 123.856 58.9978 123.814 59.3933C123.771 59.7889 123.522 60.1275 123.282 60.4448C123.679 60.4762 124.075 60.5076 124.472 60.539L124.318 60.5816C125.288 60.5341 126.037 59.5923 126.152 58.6276C126.268 57.6629 126.647 55.6423 126.173 54.7941Z" fill="#2F2E41"/>
</g>
<defs>
<clipPath id="clip0_443_7125">
<rect width="143.591" height="138.463" fill="white" transform="translate(0.630371)"/>
</clipPath>
</defs>
</svg>
