<svg width="167" height="138" viewBox="0 0 167 138" fill="none" xmlns="http://www.w3.org/2000/svg">
<g clip-path="url(#clip0_443_7156)">
<path d="M110.364 112.6H11.4106V0H110.364V112.6Z" fill="white"/>
<path d="M110.364 112.6H11.4106V0H110.364V112.6ZM12.8604 111.256H108.915V1.3448H12.8604V111.256Z" fill="#E6E6E6"/>
<path d="M110.405 0H11.5771V14.4042H110.405V0Z" fill="#072AC8"/>
<path d="M25.7461 35.7621C30.393 35.7621 34.1601 31.995 34.1601 27.348C34.1601 22.701 30.393 18.9339 25.7461 18.9339C21.0991 18.9339 17.332 22.701 17.332 27.348C17.332 31.995 21.0991 35.7621 25.7461 35.7621Z" fill="#E6E6E6"/>
<path d="M69.7469 21.4087H40.9248V23.8834H69.7469V21.4087Z" fill="#E6E6E6"/>
<path d="M104.443 27.348H40.9248V29.8227H104.443V27.348Z" fill="#E6E6E6"/>
<path d="M104.443 33.2873H40.9248V35.7621H104.443V33.2873Z" fill="#E6E6E6"/>
<path d="M25.7461 104.634C30.393 104.634 34.1601 100.867 34.1601 96.2201C34.1601 91.5731 30.393 87.806 25.7461 87.806C21.0991 87.806 17.332 91.5731 17.332 96.2201C17.332 100.867 21.0991 104.634 25.7461 104.634Z" fill="#E6E6E6"/>
<path d="M69.7469 90.2807H40.9248V92.7555H69.7469V90.2807Z" fill="#E6E6E6"/>
<path d="M104.443 96.2201H40.9248V98.6948H104.443V96.2201Z" fill="#E6E6E6"/>
<path d="M104.443 102.159H40.9248V104.634H104.443V102.159Z" fill="#E6E6E6"/>
<path d="M27.1485 3.68045H14.6099V5.49525H27.1485V3.68045Z" fill="white"/>
<path d="M27.1485 6.81509H14.6099V8.62989H27.1485V6.81509Z" fill="white"/>
<path d="M27.1485 9.94974H14.6099V11.7645H27.1485V9.94974Z" fill="white"/>
<path d="M120.985 77.7953H0.789551V45.7728H120.985V77.7953Z" fill="white"/>
<path d="M120.985 77.7953H0.789551V45.7728H120.985V77.7953ZM2.23934 76.3455H119.535V47.2226H2.23934V76.3455Z" fill="#CCCCCC"/>
<path d="M15.7055 70.0565C20.2998 70.0565 24.0242 66.3321 24.0242 61.7378C24.0242 57.1435 20.2998 53.4191 15.7055 53.4191C11.1111 53.4191 7.38672 57.1435 7.38672 61.7378C7.38672 66.3321 11.1111 70.0565 15.7055 70.0565Z" fill="#072AC8"/>
<path d="M67.5749 54.7239H33.1582V57.1706H67.5749V54.7239Z" fill="#3F3D56"/>
<path d="M109.005 60.596H33.1582V63.0427H109.005V60.596Z" fill="#3F3D56"/>
<path d="M109.005 66.468H33.1582V68.9147H109.005V66.468Z" fill="#3F3D56"/>
<path d="M140.214 86.2363C140.319 86.1941 140.429 86.1602 140.54 86.1351L144.21 76.6L142.652 74.6672L145.262 71.9358C146.016 73.0454 149.746 75.3833 148.611 77.0503L142.915 87.1831C143.075 87.4688 143.168 87.7869 143.187 88.1136C143.206 88.4403 143.151 88.767 143.025 89.0693C142.9 89.3715 142.707 89.6414 142.463 89.8586C142.218 90.0758 141.927 90.2348 141.612 90.3234C139.07 91.0856 137.74 87.1736 140.214 86.2363Z" fill="#A0616A"/>
<path d="M143.686 76.5591C143.028 76.7489 140.542 72.8827 140.126 72.5464C139.631 72.078 139.342 71.4323 139.322 70.7509C139.302 70.0696 139.553 69.4081 140.02 68.9117C140.487 68.4152 141.132 68.1241 141.813 68.1024C142.495 68.0806 143.157 68.3299 143.655 68.7956L147.479 71.4725C147.587 71.5495 147.678 71.6488 147.745 71.7637C147.812 71.8786 147.853 72.0064 147.867 72.1387C147.88 72.2709 147.865 72.4045 147.823 72.5305C147.78 72.6565 147.711 72.7719 147.621 72.8691C147.163 73.1801 144.336 76.7964 143.686 76.5591Z" fill="#072AC8"/>
<path d="M144.988 134.562L142.025 134.562L141.583 123.136L144.988 123.136L144.988 134.562Z" fill="#A0616A"/>
<path d="M145.743 137.434L136.191 137.433C136.101 132.377 142.563 133.756 145.743 133.595L145.743 137.434Z" fill="#2F2E41"/>
<path d="M154.636 133.587L151.693 133.928L148.976 122.74L153.319 122.237L154.636 133.587Z" fill="#A0616A"/>
<path d="M155.717 136.352L146.229 137.453C145.557 132.441 152.135 133.065 155.275 132.539L155.717 136.352Z" fill="#2F2E41"/>
<path d="M145.517 131.849H140.646V113.49L137.802 98.1638L133.911 84.5461L143.039 80.1053L144.78 82.8404C145.049 83.0858 149.41 87.1215 149.881 91.1203C150.36 95.1962 145.729 130.254 145.531 131.744L145.517 131.849Z" fill="#2F2E41"/>
<path d="M134.241 87.3984L132.737 80.8069C132.384 80.4677 129.046 77.0463 132.741 72.6738L134.688 67.5981L140.391 65.8314L142.621 67.5578C143.519 68.2522 144.233 69.1567 144.699 70.1917C145.166 71.2268 145.371 72.3606 145.296 73.4935L144.687 82.8189L134.241 87.3984Z" fill="#2F2E41"/>
<path d="M139.124 54.8982C145.001 58.2426 140.176 67.0667 134.189 63.9245C128.312 60.5803 133.137 51.7561 139.124 54.8982Z" fill="#A0616A"/>
<path d="M122.956 66.788C122.975 66.9105 122.984 67.0343 122.983 67.1582L132.178 73.3852L134.606 72.2111L136.857 75.6449C135.497 76.1706 132.106 79.5456 130.62 77.9345L121.29 69.4159C120.949 69.5148 120.589 69.535 120.239 69.4749C119.888 69.4148 119.556 69.2761 119.267 69.069C118.977 68.862 118.739 68.5921 118.569 68.2797C118.399 67.9672 118.302 67.6203 118.286 67.265C118.103 64.386 122.572 63.9385 122.956 66.788Z" fill="#A0616A"/>
<path d="M132.35 72.8415C132.31 72.0979 137.014 70.4148 137.472 70.0574C138.09 69.6482 138.844 69.5006 139.571 69.6468C140.297 69.7931 140.935 70.2214 141.346 70.8378C141.757 71.4542 141.907 72.2083 141.763 72.935C141.619 73.6616 141.192 74.3014 140.577 74.7141L136.804 78.1058C136.696 78.2016 136.568 78.2732 136.43 78.3157C136.292 78.3583 136.147 78.3709 136.003 78.3526C135.86 78.3343 135.722 78.2856 135.599 78.2098C135.476 78.134 135.371 78.0327 135.29 77.9128C135.073 77.3523 131.939 73.4714 132.35 72.8415Z" fill="#072AC8"/>
<path d="M149.417 128.21L143.372 113.068L147.399 107.279L156.252 127.689L149.417 128.21Z" fill="#2F2E41"/>
<path d="M166.217 137.73H126.348C126.284 137.73 126.222 137.705 126.177 137.659C126.131 137.614 126.106 137.553 126.106 137.488C126.106 137.424 126.131 137.363 126.177 137.318C126.222 137.272 126.284 137.247 126.348 137.247H166.217C166.281 137.247 166.342 137.272 166.388 137.318C166.433 137.363 166.458 137.424 166.458 137.488C166.458 137.553 166.433 137.614 166.388 137.659C166.342 137.705 166.281 137.73 166.217 137.73Z" fill="#CCCCCC"/>
<path d="M154.884 59.2918C152.92 59.6539 150.866 59.0551 149.184 57.9801C147.501 56.9052 146.149 55.3856 144.95 53.7897C144.275 52.8913 143.622 51.9436 142.702 51.297C141.783 50.6504 140.511 50.3636 139.529 50.9104C138.664 51.3923 138.282 52.6575 138.79 53.4493C137.426 53.1075 135.98 53.2104 134.602 53.5019C133.274 53.7828 131.925 54.2676 131.006 55.2664C130.087 56.2652 129.74 57.888 130.516 59.0011L131.668 59.1998C133.772 58.72 134.744 58.933 136.847 59.4129C136.776 59.0408 137.36 58.8428 137.655 59.0799C137.951 59.317 137.845 59.7886 138.035 60.1158C138.848 61.5097 138.849 63.22 138.434 64.5157C140.518 63.6502 142.045 61.3072 142.472 59.0913C142.683 58.1236 142.605 57.1152 142.248 56.1913C142.077 55.7867 141.841 55.4122 141.551 55.0821C142.332 55.3113 143.053 55.7105 143.662 56.2511C144.735 57.1844 145.51 58.4027 146.368 59.5369C147.226 60.6712 148.228 61.7702 149.546 62.3044C151.567 63.1233 153.967 62.407 155.626 60.9918C156.921 59.8876 157.836 58.4238 158.565 56.8737C158.145 57.503 157.602 58.0414 156.97 58.4568C156.338 58.8722 155.628 59.1561 154.884 59.2918Z" fill="#2F2E41"/>
<path d="M158.565 56.8737C158.828 56.4669 159.022 56.02 159.141 55.5505C158.961 55.9945 158.77 56.4373 158.565 56.8737Z" fill="#2F2E41"/>
</g>
<defs>
<clipPath id="clip0_443_7156">
<rect width="165.669" height="137.73" fill="white" transform="translate(0.789551)"/>
</clipPath>
</defs>
</svg>
